<svg width="132" height="120" viewBox="0 0 132 120" fill="none" xmlns="http://www.w3.org/2000/svg">
<path d="M67.1449 0.110717C66.643 0.209319 66.1589 0.460307 65.7092 0.688885C64.5828 1.2551 63.5967 2.09024 62.6391 2.88952C61.6351 3.72465 60.6894 4.61656 59.7437 5.51593C59.0954 6.13743 58.4574 6.77386 57.7777 7.36249C56.2986 8.56514 54.7509 9.68861 53.218 10.821C51.5373 12.0581 49.8387 13.2727 48.1415 14.4798C44.7397 16.9015 41.32 19.3009 37.975 21.7928C34.7943 24.1563 31.7302 26.6483 28.7198 29.2224C25.8558 31.6665 23.0352 34.1555 20.1458 36.5698C20.1593 36.5578 20.1742 36.5459 20.1877 36.5339C16.26 39.7968 12.1979 42.9237 7.76374 45.4799C7.05709 45.8832 6.87633 46.8752 7.29614 47.5401C7.75181 48.2467 8.65566 48.4096 9.36231 48.0017C13.7217 45.4918 17.7196 42.4292 21.589 39.2246C25.5032 35.9871 29.28 32.5898 33.1793 29.3314C33.1195 29.3822 33.0598 29.433 32.9971 29.4838C38.7922 24.6687 45.0012 20.3975 51.1295 16.0141C52.6698 14.9116 54.2116 13.7971 55.728 12.6706C57.1457 11.6144 58.5934 10.5701 59.935 9.4197C60.67 8.78924 61.3588 8.10052 62.0594 7.42972C62.923 6.60953 63.7969 5.79381 64.7067 5.02142C65.5359 4.34316 66.3965 3.67684 67.3526 3.18831C67.5483 3.10764 67.7485 3.03742 67.9547 2.98214C68.0473 2.97467 68.1399 2.97169 68.2325 2.97318C68.5463 3.02248 68.8481 3.10764 69.1469 3.2152C70.3719 3.72316 71.4939 4.45371 72.5695 5.21714C74.1875 6.38991 75.7234 7.67622 77.292 8.91623C78.1555 9.60495 79.0669 10.2414 79.9648 10.8823C81.3064 11.8399 82.6614 12.7901 84.0149 13.7358C89.2573 17.3901 94.5609 20.9532 99.7615 24.6702C99.7495 24.6613 99.7361 24.6523 99.7241 24.6433C99.7794 24.6822 99.8332 24.7225 99.887 24.7614C99.9363 24.7957 99.9841 24.8301 100.033 24.8659C100.002 24.8435 99.9706 24.8211 99.9392 24.7987C101.88 26.1956 103.801 27.6194 105.624 29.1731C107.457 30.7253 109.202 32.3717 110.929 34.0345C112.656 35.6973 114.361 37.384 116.094 39.0423C116.987 39.8939 117.891 40.735 118.813 41.5582C119.645 42.3067 120.507 43.0148 121.249 43.8529C121.26 43.8664 121.27 43.8798 121.281 43.8933C121.538 44.2085 121.789 44.4475 122.197 44.5476C122.588 44.6417 123.008 44.5715 123.341 44.3549C123.668 44.1502 123.907 43.8186 124 43.4391C124.082 43.0895 124.04 42.5935 123.807 42.2947C123.148 41.4775 122.43 40.7604 121.636 40.0717C120.837 39.377 120.06 38.6658 119.285 37.9472C117.662 36.4353 116.08 34.8831 114.494 33.3368C111.313 30.2383 108.104 27.1622 104.55 24.4895C102.67 23.0777 100.75 21.7286 98.8307 20.381C96.8467 18.9797 94.8508 17.6037 92.8548 16.2263C88.954 13.5431 85.0413 10.8718 81.1883 8.11994C81.1958 8.12591 81.2048 8.13189 81.2122 8.13786C81.1883 8.11994 81.1644 8.10201 81.139 8.08558C81.0599 8.0288 80.9807 7.97353 80.903 7.91676C80.9254 7.9317 80.9463 7.94664 80.9687 7.96158C79.0475 6.56022 77.2457 5.01396 75.3409 3.58123C74.2727 2.77 73.1761 1.99313 72.0198 1.31636C71.0517 0.750139 69.9596 0.225752 68.8391 0.0554385C68.5986 0.0180891 68.3745 0.000160335 68.1534 0.000160335C67.8262 -0.00282762 67.502 0.0360178 67.1449 0.110717ZM72.6084 5.24253C72.6801 5.29333 72.7518 5.34562 72.8235 5.39641C72.7533 5.34861 72.6816 5.29632 72.6084 5.24253ZM57.7403 7.39386C57.6925 7.4342 57.6462 7.47454 57.5984 7.51488C57.6432 7.47603 57.691 7.4342 57.7403 7.39386ZM99.9408 24.7987C99.9243 24.7868 99.9064 24.7733 99.89 24.7614C99.8481 24.7315 99.8063 24.7016 99.763 24.6717C99.8213 24.7151 99.881 24.7569 99.9408 24.7987ZM81.142 8.08109C81.1584 8.09305 81.1749 8.1035 81.1913 8.11546C81.1196 8.06167 81.0464 8.00789 80.9717 7.9556C81.0285 7.99892 81.0852 8.04076 81.142 8.08109Z" fill="#EA5F27"/>
<path d="M8.07585 45.4771C7.27658 45.5069 6.59981 46.2121 6.64014 47.0233C7.668 66.7483 7.72623 86.5092 8.79294 106.234C8.86315 107.512 8.93936 108.784 9.01406 110.063C9.06635 110.874 9.73117 111.533 10.5603 111.505C11.3596 111.475 12.0483 110.77 12.002 109.959C10.7934 90.2456 10.7187 70.4848 9.81334 50.7598C9.75508 49.4809 9.69084 48.1976 9.62062 46.9202C9.58029 46.1269 8.9319 45.4785 8.12664 45.4785C8.1117 45.477 8.09378 45.4771 8.07585 45.4771Z" fill="#EA5F27"/>
<path d="M122.164 42.1138C121.359 42.1437 120.694 42.8429 120.728 43.6601C121.551 63.2506 121.423 82.871 120.857 102.468C120.78 105.1 120.7 107.737 120.606 110.369C120.576 111.186 121.382 111.833 122.152 111.811C123.009 111.777 123.564 111.076 123.593 110.265C124.27 90.6621 124.568 71.0417 123.997 51.4392C123.921 48.8068 123.822 46.1819 123.716 43.5495C123.682 42.7562 123.017 42.1123 122.216 42.1123C122.2 42.1138 122.182 42.1138 122.164 42.1138Z" fill="#EA5F27"/>
<path d="M10.6262 109.526C9.81498 109.602 9.15609 110.226 9.18448 111.072C9.21436 111.853 9.91952 112.584 10.7308 112.514C15.4756 112.088 20.2429 112.152 24.9997 112.339C29.7969 112.525 34.5881 112.823 39.3913 112.939C44.6381 113.068 49.8835 113.056 55.1363 113.038C59.7751 113.026 64.4154 113.014 69.0602 113.096C72.4216 113.154 75.7831 113.207 79.1505 113.178C82.5239 113.154 85.8973 113.084 89.2648 113.044C95.8861 112.957 102.522 112.986 109.121 113.612C109.085 113.607 109.048 113.603 109.014 113.598C109.124 113.61 109.235 113.621 109.344 113.633C109.366 113.634 109.387 113.637 109.41 113.639C109.398 113.637 109.384 113.637 109.372 113.636C110.657 113.771 111.931 113.919 113.197 114.182C114.364 114.421 115.526 114.666 116.711 114.783C117.972 114.911 119.249 114.946 120.47 114.544C121.118 114.327 121.66 113.966 122.162 113.512C122.682 113.044 122.961 112.391 123.201 111.755C123.329 111.399 123.201 110.913 123.008 110.604C122.797 110.277 122.465 110.044 122.092 109.95C121.701 109.862 121.281 109.926 120.942 110.143C120.637 110.337 120.478 110.592 120.35 110.9C120.29 111.033 120.224 111.161 120.151 111.284C120.099 111.344 120.045 111.401 119.99 111.456C119.893 111.525 119.793 111.586 119.69 111.643C119.483 111.722 119.274 111.781 119.061 111.831C118.418 111.914 117.774 111.903 117.127 111.847C115.838 111.696 114.573 111.404 113.297 111.154C112.574 111.014 111.849 110.927 111.12 110.845C109.853 110.698 108.582 110.582 107.309 110.477C102.524 110.086 97.7207 110.01 92.9176 110.028C88.1025 110.04 83.2888 110.162 78.4678 110.196C73.6123 110.237 68.7629 110.08 63.9075 110.05C60.8553 110.032 57.8031 110.038 54.7569 110.05C48.8048 110.062 42.8513 110.08 36.9053 109.887C30.7576 109.69 24.6024 109.203 18.4502 109.203C15.8402 109.204 13.2317 109.291 10.6262 109.526ZM109.372 113.636C109.363 113.634 109.353 113.634 109.344 113.633C109.271 113.625 109.196 113.619 109.121 113.612C109.203 113.621 109.287 113.628 109.372 113.636Z" fill="#EA5F27"/>
<path d="M120.6 41.7345C116.509 44.331 112.459 46.9992 108.379 49.6242C104.212 52.3088 100.045 54.9995 95.8847 57.6887C91.9047 60.2688 87.8306 62.7069 83.8447 65.2751C82.893 65.8936 81.9473 66.5181 81.0136 67.1545C80.1381 67.7491 79.2626 68.3512 78.429 69.0041C77.1039 70.0543 75.8968 71.245 74.6538 72.3894C74.0801 72.9183 73.5004 73.4337 72.9028 73.9342C71.9228 74.732 70.9053 75.473 69.7744 76.0437C69.3441 76.2289 68.9019 76.3843 68.4403 76.4859C68.2371 76.5113 68.0384 76.5218 67.8367 76.5173C67.6544 76.4844 67.4767 76.4411 67.2974 76.3858C66.5609 76.0631 65.8946 75.6179 65.1864 75.231C64.7427 74.986 64.2706 74.7932 63.809 74.5766C63.2368 74.3077 62.6645 74.0343 62.0983 73.7534C60.074 72.7554 58.078 71.6992 56.0985 70.6131C52.1425 68.4423 48.2551 66.155 44.3155 63.9544C40.3938 61.7657 36.4079 59.6772 32.2815 57.8844C31.3134 57.4705 30.3319 57.0791 29.3638 56.6533C28.3539 56.1977 27.3618 55.7076 26.3818 55.1952C24.5143 54.2211 22.6932 53.1529 20.872 52.0907C18.9747 50.9822 17.0788 49.8737 15.1351 48.8578C13.0346 47.7552 10.8698 46.7976 8.6393 45.9983C8.28373 45.8698 7.7982 45.9923 7.49492 46.191C7.16774 46.3957 6.92868 46.7273 6.84203 47.1068C6.74791 47.4923 6.81813 47.9121 7.02878 48.2512C7.25587 48.6068 7.56513 48.7711 7.95057 48.9056C8.10445 48.9608 8.25686 49.0176 8.41074 49.0729C12.3683 50.5878 16.03 52.7197 19.6738 54.8516C21.495 55.9138 23.3206 56.9701 25.1941 57.9441C26.0979 58.4162 27.0212 58.8599 27.949 59.2857C28.9933 59.7578 30.0614 60.1732 31.1117 60.6288C39.3869 64.2114 47.0256 69.0564 54.9228 73.374C57.4551 74.7634 60.0232 76.093 62.6377 77.3255C63.2218 77.6004 63.7985 77.8678 64.3527 78.195C64.8727 78.4983 65.3806 78.8016 65.9289 79.0406C66.5937 79.3319 67.2361 79.4664 67.9592 79.5082C68.4896 79.5426 69.0498 79.4096 69.5638 79.2871C70.5737 79.0421 71.5418 78.5162 72.4232 77.9739C73.4212 77.3614 74.3251 76.6084 75.2185 75.8554C76.8021 74.5213 78.2483 73.0408 79.8184 71.7037C81.2108 70.5608 82.7481 69.5703 84.2526 68.5783C85.9856 67.4294 87.7485 66.3254 89.5159 65.2288C91.2788 64.1382 93.0461 63.0461 94.803 61.9375C96.6182 60.7872 98.4215 59.6025 100.225 58.4357C103.889 56.0662 107.554 53.7027 111.225 51.3393C114.878 48.9818 118.52 46.5884 122.191 44.2548C122.879 43.823 123.089 42.8833 122.652 42.1946C122.373 41.7494 121.883 41.5044 121.384 41.5044C121.118 41.5059 120.843 41.5791 120.6 41.7345ZM8.46901 49.0938C8.5452 49.1207 8.61986 49.1491 8.69606 49.1745C8.61986 49.1506 8.5452 49.1222 8.46901 49.0938ZM73.1717 73.7161C73.1 73.7758 73.0268 73.8356 72.9536 73.8954C73.0268 73.8341 73.0985 73.7743 73.1717 73.7161ZM70.0015 75.9451C69.9626 75.963 69.9253 75.9794 69.8865 75.9974C69.9253 75.9794 69.9641 75.9615 70.0015 75.9451Z" fill="#EA5F27"/>
<path d="M56.4705 73.2529C54.6792 74.2389 53.366 75.7971 51.9825 77.2627C51.2296 78.056 50.4064 78.7866 49.5892 79.5216C48.8422 80.1909 48.0803 80.8468 47.3139 81.4937C41.3798 86.4223 34.9512 90.6996 28.5809 95.0336C22.1911 99.3811 15.8477 103.841 10.1272 109.058C9.52667 109.606 9.64319 110.65 10.2034 111.17C10.4888 111.439 10.8802 111.584 11.2776 111.573C11.6974 111.556 12.0126 111.369 12.3159 111.095C13.3632 110.138 14.4329 109.207 15.519 108.299C15.4608 108.348 15.404 108.396 15.3442 108.445C22.0029 102.907 29.286 98.2083 36.4123 93.3125C39.9844 90.8609 43.5087 88.3466 46.9045 85.6559C48.6316 84.2785 50.3242 82.8547 51.9706 81.3846C52.7236 80.7078 53.4705 80.0251 54.1712 79.296C54.8779 78.561 55.5487 77.7841 56.2897 77.073C56.4525 76.9146 56.6243 76.7652 56.7991 76.6173C57.204 76.3066 57.6194 76.0242 58.0705 75.7777C58.7832 75.3863 58.946 74.3719 58.5322 73.7175C58.2423 73.2619 57.7762 73.0393 57.2937 73.0393C57.0143 73.0348 56.7304 73.108 56.4705 73.2529Z" fill="#EA5F27"/>
<path d="M76.5614 72.4087C76.1939 72.5253 75.8787 72.7882 75.6919 73.1259C75.5052 73.4814 75.4648 73.9027 75.5874 74.2807C75.7099 74.6886 75.9668 74.9171 76.3044 75.1502C77.1336 75.7284 77.9613 76.311 78.7844 76.9011C78.6799 76.825 78.5738 76.7488 78.4752 76.6741C85.7464 81.897 92.6859 87.5935 99.2983 93.6277C102.537 96.5813 105.688 99.6275 108.734 102.778C109.447 103.513 110.146 104.26 110.883 104.973C111.706 105.76 112.551 106.519 113.404 107.278C115.027 108.732 116.661 110.174 118.149 111.772C118.441 112.087 118.721 112.409 118.995 112.736C119.24 113.017 119.712 113.144 120.069 113.133C120.46 113.121 120.84 112.946 121.107 112.661C121.376 112.37 121.521 111.984 121.511 111.587C121.493 111.155 121.3 110.864 121.033 110.549C118.214 107.221 114.649 104.643 111.637 101.502C108.625 98.3577 105.527 95.3114 102.33 92.3519C95.7471 86.2594 88.8076 80.5285 81.5543 75.2413C80.2874 74.3195 79.01 73.4142 77.7207 72.5223C77.5385 72.3953 77.289 72.343 77.0454 72.343C76.8707 72.34 76.7033 72.3654 76.5614 72.4087Z" fill="#EA5F27"/>
<path d="M3.61959 96.1421C3.52099 96.1481 3.42688 96.1884 3.36263 96.2586C3.28644 96.3408 3.27447 96.4274 3.26402 96.5275C3.25804 96.6037 3.25208 96.6739 3.2461 96.7442C3.2461 96.7083 3.25207 96.6739 3.25207 96.6456C3.09969 98.2157 2.85468 99.7799 2.56335 101.332C2.278 102.826 1.95081 104.308 1.64156 105.802C1.38459 107.063 1.13958 108.334 0.98719 109.619C0.852732 110.752 0.800431 111.89 0.946841 113.021C1.00511 113.483 1.10969 113.937 1.24415 114.381C1.39654 114.848 1.6057 115.296 1.85669 115.722C2.40498 116.638 3.23413 117.357 4.13201 117.917C4.65191 118.238 5.21815 118.489 5.78287 118.716C6.50596 118.997 7.25291 119.218 8.00588 119.393C8.50785 119.509 9.0218 119.568 9.53423 119.614C10.0063 119.66 10.4799 119.69 10.952 119.708C12.0262 119.76 13.0944 119.772 14.1566 119.865C14.1267 119.865 14.0924 119.859 14.058 119.859C14.4076 119.893 14.7467 119.941 15.0903 119.993C15.295 120.028 15.4937 119.923 15.5401 119.713C15.5864 119.526 15.4638 119.299 15.2592 119.263C13.4036 118.963 11.5242 119.04 9.65524 118.882C9.67018 118.883 9.68663 118.886 9.70306 118.889C9.35945 118.855 9.01436 118.807 8.67522 118.755C8.35402 118.709 8.03875 118.632 7.72352 118.55C7.22005 118.425 6.72703 118.271 6.24149 118.095C5.44221 117.79 4.68178 117.418 3.9826 116.923C4.00651 116.941 4.03488 116.958 4.05879 116.982C3.65691 116.683 3.29388 116.356 2.9652 115.984C2.65744 115.607 2.39749 115.205 2.18534 114.765C2.20327 114.794 2.21523 114.823 2.23166 114.853C1.99113 114.334 1.83128 113.793 1.7267 113.232C1.56685 112.207 1.58477 111.175 1.67142 110.15C1.67142 110.184 1.66545 110.214 1.66545 110.248C1.87012 108.136 2.3482 106.053 2.78593 103.975C3.0429 102.76 3.28789 101.535 3.49855 100.31C3.71965 99.0494 3.88403 97.778 4.00654 96.4991C4.01251 96.405 3.94827 96.3005 3.88403 96.2422C3.81979 96.1779 3.72864 96.1421 3.63751 96.1421C3.63452 96.1421 3.62706 96.1421 3.61959 96.1421ZM1.71774 113.154C1.72073 113.167 1.72371 113.182 1.7267 113.199C1.72222 113.184 1.71924 113.169 1.71774 113.154ZM2.99657 116.016C3.00255 116.024 3.00855 116.03 3.01303 116.037C3.00705 116.03 3.00105 116.024 2.99657 116.016ZM9.65825 118.883C9.64032 118.88 9.62238 118.879 9.60595 118.879C9.62388 118.88 9.64181 118.882 9.65825 118.883Z" fill="#EA5F27"/>
<path d="M112.378 23.4558C112.244 23.6022 112.25 23.8532 112.402 23.9862C113.33 24.8034 114.334 25.5444 115.338 26.2735C116.59 27.1863 117.866 28.0662 119.124 28.9626C119.118 28.9596 119.113 28.9552 119.107 28.9522C120.794 30.1488 122.469 31.3679 124.079 32.6632C125.594 33.8883 127.057 35.194 128.313 36.6835C128.885 37.3782 129.404 38.1162 129.806 38.9275C129.801 38.917 129.797 38.9065 129.792 38.8946C129.8 38.911 129.807 38.9275 129.813 38.9424C129.819 38.9558 129.827 38.9693 129.833 38.9812C129.828 38.9738 129.825 38.9678 129.822 38.9603C129.906 39.1486 129.988 39.3413 130.061 39.534C130.164 39.8179 130.233 40.1152 130.284 40.4155C130.282 40.4035 130.279 40.3916 130.278 40.3811C130.447 41.4373 130.406 42.5115 130.308 43.5797C130.314 43.5439 130.314 43.5095 130.32 43.4751C130.133 45.3725 129.783 47.2444 129.526 49.1298C129.404 50.0173 129.316 50.9092 129.275 51.8085C129.235 52.6541 129.269 53.5132 129.41 54.3528C129.428 54.4514 129.45 54.5336 129.526 54.6098C129.602 54.674 129.695 54.7143 129.795 54.7084C129.894 54.7024 129.988 54.662 130.058 54.5859C130.116 54.5216 130.169 54.4111 130.157 54.3169C129.946 53.056 129.994 51.7787 130.11 50.5058C130.11 50.5342 130.104 50.57 130.104 50.6044C130.251 49.1283 130.496 47.6687 130.717 46.2046C130.922 44.863 131.102 43.508 131.137 42.1485C131.155 41.5479 131.119 40.9458 131.026 40.3512C130.95 39.8552 130.81 39.3831 130.623 38.9215C130.231 37.9878 129.649 37.1466 129.012 36.3593C128.271 35.4375 127.424 34.5964 126.555 33.7971C125.563 32.8873 124.518 32.0402 123.456 31.217C121.344 29.5826 119.137 28.0662 116.96 26.5185C116.984 26.5364 117.013 26.5588 117.037 26.5767C116.266 26.0284 115.496 25.4742 114.743 24.908C114.113 24.4359 113.494 23.9503 112.91 23.4319C112.834 23.3647 112.741 23.3303 112.65 23.3303C112.55 23.3378 112.452 23.3766 112.378 23.4558ZM129.822 38.9648C129.819 38.9588 129.816 38.9514 129.813 38.9454C129.81 38.9409 129.807 38.9349 129.806 38.9305C129.812 38.9424 129.816 38.9529 129.822 38.9648Z" fill="#EA5F27"/>
<path d="M60.9704 15.7469C58.8983 17.7444 56.747 19.6552 54.5433 21.5092L54.5448 21.5077C44.9684 29.5259 34.4986 36.3713 24.5308 43.8711C24.3679 43.9936 24.2977 44.2102 24.4142 44.391C24.5188 44.5478 24.7698 44.624 24.9342 44.5015C31.1148 39.8567 37.4806 35.4615 43.7075 30.8809C49.9 26.3347 55.9746 21.5899 61.5247 16.2564C61.6711 16.1159 61.6412 15.859 61.5008 15.7305C61.4276 15.6632 61.3409 15.6319 61.2528 15.6319C61.1527 15.6304 61.0511 15.6707 60.9704 15.7469Z" fill="#EA5F27"/>
<path d="M113.535 58.9795C113.33 58.9855 113.179 59.1662 113.179 59.3649C113.261 69.0758 113.797 78.7687 113.95 88.4796C113.95 88.6843 114.137 88.8411 114.335 88.8352C114.546 88.8292 114.697 88.6484 114.697 88.4497C114.544 78.7389 114.008 69.0459 113.926 59.3351C113.926 59.1349 113.741 58.9795 113.545 58.9795C113.542 58.9795 113.539 58.9795 113.535 58.9795Z" fill="#EA5F27"/>
<path d="M24.7009 105.209C24.0705 105.962 23.452 106.709 22.8335 107.468C22.7692 107.55 22.7229 107.625 22.7229 107.731C22.7229 107.83 22.7632 107.93 22.8335 107.994C22.9679 108.128 23.2308 108.157 23.3593 107.994C23.9778 107.241 24.6023 106.488 25.2268 105.741C25.291 105.659 25.3374 105.584 25.3374 105.478C25.3374 105.379 25.297 105.279 25.2268 105.209C25.1566 105.139 25.052 105.1 24.9504 105.1C24.8548 105.1 24.7637 105.134 24.7009 105.209Z" fill="#EA5F27"/>
<path d="M29.5356 104.419C29.437 104.443 29.3727 104.507 29.3144 104.588C28.5734 105.604 27.8384 106.618 27.1034 107.64C26.9868 107.809 27.0735 108.06 27.2378 108.154C27.326 108.206 27.4306 108.218 27.5292 108.188C27.6278 108.164 27.692 108.1 27.7502 108.019C28.4793 106.997 29.2144 105.983 29.9569 104.967C30.0794 104.798 29.9868 104.547 29.8224 104.453C29.7701 104.419 29.7074 104.402 29.6431 104.402C29.6073 104.404 29.5699 104.408 29.5356 104.419Z" fill="#EA5F27"/>
<path d="M34.9703 104.839C34.3802 105.545 33.8155 106.268 33.2597 106.997C33.2074 107.074 33.2014 107.202 33.2253 107.289C33.2492 107.383 33.3135 107.464 33.3942 107.51C33.4823 107.562 33.5869 107.574 33.6855 107.546C33.7841 107.522 33.8423 107.458 33.9066 107.377C34.0485 107.189 34.1949 106.994 34.3414 106.805C34.3384 106.809 34.3354 106.814 34.3324 106.817C34.7118 106.327 35.0973 105.843 35.4932 105.363C35.5634 105.287 35.6038 105.206 35.6038 105.1C35.6038 105.001 35.5634 104.907 35.4932 104.837C35.423 104.767 35.3184 104.728 35.2168 104.728C35.1242 104.73 35.0316 104.764 34.9703 104.839Z" fill="#EA5F27"/>
<path d="M41.0691 104.455C40.1996 105.423 39.3361 106.392 38.4726 107.372C38.3381 107.523 38.3262 107.746 38.4726 107.897C38.613 108.037 38.87 108.049 39.0029 107.897C39.8605 106.923 40.73 105.947 41.5995 104.979C41.7339 104.827 41.7459 104.599 41.5995 104.453C41.5278 104.381 41.4277 104.344 41.3276 104.344C41.2334 104.345 41.1378 104.38 41.0691 104.455Z" fill="#EA5F27"/>
<path d="M46.0306 104.573C45.5002 105.39 44.9684 106.207 44.4425 107.024C44.3319 107.193 44.4081 107.432 44.5769 107.532C44.7577 107.643 44.9743 107.573 45.0849 107.398C45.6152 106.581 46.1471 105.763 46.673 104.946C46.7836 104.777 46.7074 104.538 46.5386 104.438C46.4788 104.402 46.4161 104.385 46.3533 104.385C46.2278 104.385 46.1053 104.455 46.0306 104.573Z" fill="#EA5F27"/>
<path d="M51.4744 104.286C50.9784 104.754 50.5168 105.244 50.0731 105.768C50.0089 105.844 49.9685 105.925 49.9685 106.031C49.9685 106.13 50.0089 106.224 50.0731 106.294C50.2135 106.428 50.4705 106.452 50.6034 106.294C51.0412 105.774 51.5073 105.284 52.0048 104.818C52.1512 104.678 52.1452 104.427 52.0048 104.288C51.9331 104.216 51.8405 104.183 51.7478 104.183C51.6507 104.18 51.5521 104.217 51.4744 104.286Z" fill="#EA5F27"/>
<path d="M57.9063 103.845C57.8017 103.875 57.7435 103.94 57.6852 104.02C56.9038 105.036 56.121 106.057 55.3396 107.078C55.2814 107.155 55.2754 107.277 55.2993 107.364C55.3292 107.458 55.3874 107.539 55.4741 107.585C55.5563 107.637 55.6609 107.649 55.7595 107.625C55.864 107.595 55.9223 107.531 55.9806 107.45C56.7619 106.435 57.5447 105.414 58.3261 104.392C58.3844 104.316 58.3903 104.194 58.3664 104.107C58.3366 104.013 58.2783 103.932 58.1916 103.886C58.1364 103.85 58.0706 103.833 58.0034 103.833C57.972 103.835 57.9391 103.838 57.9063 103.845Z" fill="#EA5F27"/>
<path d="M63.5218 103.705C62.6987 104.662 61.9173 105.654 61.1763 106.669C61.0538 106.832 61.1465 107.083 61.3108 107.183C61.3989 107.229 61.5035 107.247 61.5961 107.217C61.6947 107.187 61.759 107.129 61.8172 107.048C62.0802 106.687 62.3476 106.336 62.6165 105.98C62.615 105.982 62.6135 105.985 62.6105 105.986C62.618 105.977 62.6255 105.968 62.6315 105.959C62.6434 105.943 62.6554 105.926 62.6688 105.91C62.6673 105.914 62.6643 105.917 62.6613 105.922C63.1125 105.35 63.5742 104.786 64.0463 104.235C64.1105 104.153 64.1568 104.072 64.1568 103.966C64.1568 103.868 64.1165 103.774 64.0463 103.703C63.976 103.633 63.8715 103.594 63.7699 103.594C63.6758 103.594 63.5831 103.629 63.5218 103.705ZM62.6315 105.959C62.6255 105.967 62.6225 105.973 62.6165 105.98C62.6344 105.962 62.6479 105.944 62.6628 105.923C62.6524 105.934 62.6404 105.946 62.6315 105.959Z" fill="#EA5F27"/>
<path d="M69.0989 103.796C68.4101 104.631 67.7214 105.471 67.0446 106.318C66.9744 106.4 66.9341 106.475 66.9341 106.581C66.9341 106.679 66.9744 106.773 67.0446 106.844C67.1089 106.914 67.2075 106.954 67.3076 106.954C67.3957 106.954 67.5123 106.92 67.5706 106.844C68.2533 106.002 68.9361 105.163 69.6248 104.322C69.695 104.246 69.7353 104.165 69.7353 104.059C69.7353 103.96 69.695 103.866 69.6248 103.796C69.5575 103.726 69.4529 103.687 69.3499 103.687C69.2542 103.687 69.1601 103.721 69.0989 103.796Z" fill="#EA5F27"/>
<path d="M75.3976 103.603C74.8194 104.252 74.2532 104.91 73.6989 105.581C73.6347 105.663 73.5884 105.74 73.5884 105.844C73.5884 105.943 73.6287 106.043 73.6989 106.107C73.8334 106.242 74.0963 106.264 74.2248 106.107C74.785 105.442 75.3453 104.782 75.9235 104.129C76.058 103.977 76.0759 103.756 75.9235 103.603C75.8548 103.531 75.7546 103.494 75.6545 103.494C75.5589 103.494 75.4633 103.53 75.3976 103.603Z" fill="#EA5F27"/>
<path d="M81.4662 103.796C80.4503 104.981 79.4299 106.165 78.414 107.35C78.3498 107.432 78.3035 107.513 78.3035 107.619C78.3035 107.717 78.3438 107.812 78.414 107.882C78.5485 108.016 78.8114 108.034 78.9399 107.882C79.9618 106.697 80.9822 105.512 81.9981 104.328C82.0623 104.245 82.1086 104.165 82.1086 104.059C82.1086 103.96 82.0683 103.866 81.9981 103.796C81.9293 103.727 81.8263 103.688 81.7232 103.688C81.6261 103.688 81.5305 103.723 81.4662 103.796Z" fill="#EA5F27"/>
<path d="M88.3161 104C87.3644 104.91 86.4247 105.833 85.4969 106.761C85.3565 106.908 85.3565 107.147 85.4969 107.292C85.6433 107.438 85.8824 107.438 86.0273 107.292C86.9551 106.358 87.8888 105.436 88.8405 104.531C88.9869 104.39 88.9809 104.145 88.8405 104C88.7688 103.929 88.6746 103.893 88.5805 103.893C88.4864 103.893 88.3908 103.93 88.3161 104Z" fill="#EA5F27"/>
<path d="M94.3293 104.051C93.8214 104.501 93.3314 104.973 92.8593 105.463C92.7189 105.615 92.7129 105.848 92.8593 105.993C93.0057 106.134 93.2507 106.14 93.3896 105.993C93.8617 105.503 94.3533 105.031 94.8597 104.576C95.0121 104.441 94.9942 104.184 94.8597 104.05C94.785 103.975 94.6924 103.941 94.5997 103.941C94.5041 103.942 94.407 103.98 94.3293 104.051Z" fill="#EA5F27"/>
<path d="M99.4029 104.211C98.9308 104.625 98.4632 105.04 97.9971 105.454C97.8447 105.595 97.8566 105.846 97.9971 105.985C98.1435 106.137 98.3705 106.119 98.5229 105.985C98.9905 105.565 99.4626 105.15 99.9347 104.742C100.086 104.607 100.069 104.35 99.9347 104.211C99.8615 104.138 99.7734 104.107 99.6823 104.107C99.5851 104.105 99.485 104.144 99.4029 104.211Z" fill="#EA5F27"/>
<path d="M105.213 104.363C104.139 105.181 103.106 106.038 102.114 106.948C101.968 107.082 101.98 107.333 102.114 107.474C102.267 107.626 102.494 107.614 102.645 107.474C103.544 106.651 104.478 105.869 105.44 105.122L105.436 105.125C105.486 105.085 105.537 105.046 105.585 105.006C105.667 104.948 105.731 104.889 105.76 104.785C105.784 104.691 105.772 104.586 105.719 104.499C105.673 104.417 105.591 104.353 105.498 104.325C105.467 104.316 105.433 104.313 105.397 104.313C105.331 104.31 105.261 104.325 105.213 104.363Z" fill="#EA5F27"/>
<path d="M108.409 105.628C107.545 106.357 106.682 107.087 105.812 107.816C105.66 107.951 105.678 108.214 105.812 108.347C105.882 108.417 105.981 108.457 106.081 108.457C106.186 108.457 106.262 108.411 106.344 108.347C107.207 107.618 108.071 106.887 108.94 106.158C109.093 106.024 109.075 105.761 108.94 105.628C108.87 105.557 108.772 105.517 108.671 105.517C108.567 105.517 108.491 105.563 108.409 105.628Z" fill="#EA5F27"/>
</svg>
