<?xml version="1.0" encoding="UTF-8"?>
<svg version="1.1" xmlns="http://www.w3.org/2000/svg" width="374" height="292">
<path d="M0 0 C18.6560686 -0.04697581 37.312125 -0.08211299 55.96824074 -0.10362434 C64.63298153 -0.11388335 73.29768532 -0.12783919 81.96240234 -0.15087891 C89.52534907 -0.17097919 97.08826896 -0.18375535 104.65124166 -0.18817699 C108.64597297 -0.19075659 112.64062759 -0.19670363 116.63533401 -0.21146011 C155.95596795 -0.35082959 198.30790428 0.4278952 230 27 C230.99 27.7425 231.98 28.485 233 29.25 C246.96643663 41.21020816 256.0258523 59.88212114 258 78 C258.93646582 96.99321281 257.86406101 114.46431769 250 132 C249.61972656 132.87011719 249.23945313 133.74023438 248.84765625 134.63671875 C235.10696064 164.1075036 206.23686518 182.55584459 176.72631836 193.45776367 C168.07908789 196.46073473 159.19557197 198.4167308 150.25 200.3125 C149.05455566 200.56733154 147.85911133 200.82216309 146.62744141 201.0847168 C135.17724318 203.3947616 123.79089499 204.19437533 112.125 204.0625 C111.32964844 204.05798828 110.53429687 204.05347656 109.71484375 204.04882812 C107.80986087 204.03735232 105.90491828 204.01943794 104 204 C104 202.68 104 201.36 104 200 C105.39847168 199.4440918 105.39847168 199.4440918 106.82519531 198.87695312 C124.94584962 191.6601815 142.97661183 184.2725152 160.8125 176.375 C161.57381226 176.04024658 162.33512451 175.70549316 163.11950684 175.3605957 C167.78024769 173.30741258 172.40361641 171.19374342 177 169 C177.88220215 168.5865332 178.7644043 168.17306641 179.67333984 167.74707031 C184.28643519 165.2902436 185.71827414 162.98544293 187.27610779 157.89645386 C188.82693317 151.69125632 189.73105043 145.36331216 190.69921875 139.046875 C190.94115747 137.49898179 191.18350004 135.95115166 191.42622375 134.40338135 C191.931372 131.16993246 192.43069623 127.93565066 192.92602539 124.70068359 C193.55612138 120.58954058 194.20211618 116.48108275 194.85277081 112.37314987 C195.35655884 109.17914661 195.85097924 105.98374369 196.34281349 102.78787994 C196.57701198 101.27421717 196.81416556 99.76100811 197.05454063 98.2483139 C199.50726696 84.64252017 199.50726696 84.64252017 199 71 C196.22976199 67.62380219 193.50631974 66.08333757 189.50390625 64.40625 C188.40288574 63.93952881 187.30186523 63.47280762 186.16748047 62.99194336 C184.97783691 62.49960205 183.78819336 62.00726074 182.5625 61.5 C181.30842624 60.97287164 180.05468849 60.44494323 178.80126953 59.91625977 C174.87324594 58.2636066 170.93715673 56.63074808 167 55 C165.754675 54.48301866 164.50939416 53.96593094 163.26416016 53.44873047 C158.43189568 51.44331163 153.59831724 49.44120428 148.76049805 47.44921875 C139.38786139 43.58918821 130.0499175 39.65140143 120.73583984 35.65209961 C117.83227104 34.41342987 114.9184679 33.20307849 112 32 C111.05415039 31.59265625 110.10830078 31.1853125 109.13378906 30.765625 C108.2053418 30.38921875 107.27689453 30.0128125 106.3203125 29.625 C105.51094238 29.28726563 104.70157227 28.94953125 103.86767578 28.6015625 C95.58304262 26.86366567 87.3709302 30.21838877 79.56640625 32.75390625 C77.78024147 33.32261696 77.78024147 33.32261696 75.95799255 33.90281677 C72.7948388 34.91139351 69.63413561 35.92700742 66.4744873 36.94647217 C62.11654227 38.35056906 57.75411075 39.74069176 53.39266968 41.13388062 C50.93257665 41.91986171 48.47279651 42.70682283 46.01333618 43.49478149 C33.70666001 47.43145616 21.35928849 51.23205497 9 55 C8.90561142 55.68534317 8.81122284 56.37068634 8.713974 57.07679749 C8.45389343 58.96520859 8.19366963 60.85359997 7.93331909 62.74197388 C7.65866998 64.73842952 7.386426 66.73521636 7.11547852 68.73217773 C6.99615967 69.58239502 6.87684082 70.4326123 6.75390625 71.30859375 C6.63345947 72.18314209 6.5130127 73.05769043 6.38891602 73.95874023 C6 76 6 76 5 77 C2.43707943 77.10046219 -0.09891183 77.13616797 -2.66235352 77.12939453 C-3.86760178 77.13202301 -3.86760178 77.13202301 -5.09719849 77.13470459 C-7.77445594 77.13913168 -10.45164803 77.13617802 -13.12890625 77.1328125 C-14.99486809 77.13348628 -16.86082984 77.13445693 -18.72679138 77.13571167 C-22.65535307 77.13719059 -26.58389211 77.13503153 -30.51245117 77.13037109 C-35.5049325 77.1247326 -40.49735937 77.1279137 -45.4898386 77.13394356 C-49.35504042 77.1375947 -53.22022981 77.13638891 -57.08543205 77.13381577 C-58.92269841 77.13315592 -60.75996595 77.13394135 -62.59723091 77.13629532 C-93.66538688 77.16730656 -93.66538688 77.16730656 -98 75 C-97.67 73.68 -97.34 72.36 -97 71 C-81.04079354 69.24707357 -65.0571127 67.7600579 -49.0703125 66.28564453 C-45.3303366 65.94061575 -41.59067139 65.59232961 -37.8510685 65.24328423 C-34.94298647 64.97234176 -32.03471464 64.70348239 -29.12638474 64.435215 C-27.74606927 64.30756876 -26.36582125 64.17919093 -24.98564529 64.05004501 C-23.06826939 63.87086432 -21.15059514 63.6948849 -19.23291016 63.51904297 C-18.14660309 63.41848602 -17.06029602 63.31792908 -15.94107056 63.21432495 C-13.27980145 63.02039 -10.66684174 62.95900726 -8 63 C-7.95609131 62.0193457 -7.91218262 61.03869141 -7.86694336 60.02832031 C-7.32857221 49.1157487 -6.23987156 38.31632797 -4.89819336 27.47509766 C-4.55785321 24.71227822 -4.23071823 21.94808851 -3.90429688 19.18359375 C-3.68828326 17.40875866 -3.47151504 15.63401521 -3.25390625 13.859375 C-3.15799698 13.0416864 -3.06208771 12.2239978 -2.96327209 11.38153076 C-2.86654709 10.61592834 -2.76982208 9.85032593 -2.67016602 9.06152344 C-2.58879898 8.39554138 -2.50743195 7.72955933 -2.42359924 7.043396 C-1.90766614 4.55459166 -0.96335258 2.34749946 0 0 Z " fill="#E1171D" transform="translate(110,15)"/>
<path d="M0 0 C3.10048856 1.56040294 6.27565219 2.91555064 9.46905518 4.27288818 C12.42940616 5.53145401 15.36383617 6.84531759 18.30059814 8.15783691 C18.30059814 8.81783691 18.30059814 9.47783691 18.30059814 10.15783691 C15.44705994 11.11807517 12.5928026 12.07607704 9.73809814 13.03283691 C8.93823486 13.30225098 8.13837158 13.57166504 7.31427002 13.84924316 C6.52471924 14.11350098 5.73516846 14.37775879 4.92169189 14.65002441 C3.84552612 15.01136475 3.84552612 15.01136475 2.74761963 15.38000488 C-0.38280535 16.37506963 -3.5391399 17.26195044 -6.69940186 18.15783691 C-9.76592908 19.04619107 -12.83028455 19.94196489 -15.89471436 20.83752441 C-16.76401581 21.09156036 -17.63331726 21.34559631 -18.52896118 21.60733032 C-20.36283188 22.14340126 -22.19666295 22.67960775 -24.03045654 23.21594238 C-25.88222611 23.7573633 -27.73411283 24.29838373 -29.58612061 24.83898926 C-32.29341785 25.6292613 -35.00041595 26.42054555 -37.70721436 27.21252441 C-38.57670715 27.46685242 -39.44619995 27.72118042 -40.34204102 27.98321533 C-46.38106233 29.75562283 -52.39554795 31.59316363 -58.39422607 33.49816895 C-60.69940186 34.15783691 -60.69940186 34.15783691 -62.69940186 34.15783691 C-63.0391791 37.49054565 -63.37003249 40.82408478 -63.69940186 44.15783691 C-63.79479248 45.09240723 -63.89018311 46.02697754 -63.98846436 46.98986816 C-64.51920651 52.41102014 -64.80217126 57.71105863 -64.69940186 63.15783691 C-62.26508547 64.33157864 -59.82736004 65.49699455 -57.38690186 66.65783691 C-56.69660889 66.9917041 -56.00631592 67.32557129 -55.29510498 67.66955566 C-51.17951413 69.63077168 -51.17951413 69.63077168 -46.69940186 70.15783691 C-46.6242334 69.19744507 -46.6242334 69.19744507 -46.54754639 68.21765137 C-46.31464979 65.30116275 -46.06964585 62.38581213 -45.82440186 59.47033691 C-45.74576904 58.46293457 -45.66713623 57.45553223 -45.58612061 56.41760254 C-45.50233154 55.4411377 -45.41854248 54.46467285 -45.33221436 53.45861816 C-45.25889893 52.56312256 -45.1855835 51.66762695 -45.11004639 50.74499512 C-44.65970599 47.9077435 -44.03503943 45.70569307 -42.69940186 43.15783691 C-40.95379639 41.96691895 -40.95379639 41.96691895 -38.83221436 41.16564941 C-38.04072998 40.85732178 -37.24924561 40.54899414 -36.43377686 40.23132324 C-35.57268311 39.91832275 -34.71158936 39.60532227 -33.82440186 39.28283691 C-32.91947998 38.93825439 -32.01455811 38.59367187 -31.08221436 38.23864746 C-24.54730677 35.77274093 -17.96773693 33.41322939 -11.35076904 31.1763916 C-6.24338141 29.44132732 -1.19320624 27.59367098 3.83557129 25.64427185 C7.04980013 24.4012825 10.27260933 23.1813649 13.49591064 21.96212769 C15.10250513 21.34764808 16.70518152 20.72281446 18.30352783 20.08718872 C32.79792596 14.33307496 32.79792596 14.33307496 38.53887939 15.94689941 C40.14494231 16.6419028 41.73140476 17.38317576 43.30059814 18.15783691 C45.50795062 19.02823227 47.71777508 19.89237421 49.92950439 20.75158691 C52.24302091 21.71478664 54.55419613 22.68362756 56.86309814 23.65783691 C58.64297119 24.38680176 58.64297119 24.38680176 60.45880127 25.13049316 C62.14586182 25.84012207 62.14586182 25.84012207 63.86700439 26.56408691 C64.88737793 26.99012207 65.90775146 27.41615723 66.95904541 27.85510254 C69.30059814 29.15783691 69.30059814 29.15783691 70.30059814 32.15783691 C69.37789627 32.48823975 69.37789627 32.48823975 68.43655396 32.82531738 C61.91248902 35.16158771 55.38869809 37.49862199 48.86505127 39.83605957 C46.44487112 40.70310929 44.02462594 41.56997749 41.60430908 42.43664551 C38.08362092 43.69737326 34.56314604 44.95869424 31.04278564 46.22033691 C29.88671814 46.63452881 28.73065063 47.0487207 27.53955078 47.47546387 C21.95097413 49.48015283 16.36629875 51.49461682 10.78985596 53.53283691 C9.7776297 53.90271729 8.76540344 54.27259766 7.72250366 54.65368652 C5.83302828 55.34529439 3.94421186 56.03870627 2.05618286 56.73425293 C1.2204776 57.04032471 0.38477234 57.34639648 -0.47625732 57.66174316 C-1.19957245 57.92801514 -1.92288757 58.19428711 -2.66812134 58.46862793 C-4.66162603 59.14501966 -6.65054632 59.67810067 -8.69940186 60.15783691 C-8.7723497 61.06492905 -8.84529755 61.97202118 -8.92045593 62.90660095 C-9.61044317 71.48342169 -10.30174492 80.06013527 -10.99449825 88.63673306 C-11.35054503 93.04532157 -11.70609553 97.4539489 -12.06048584 101.8626709 C-12.40294259 106.12270181 -12.74673696 110.3826229 -13.09143257 114.64247322 C-13.22226498 116.26219966 -13.35262723 117.88196415 -13.48249626 119.50176811 C-14.1160386 127.40008451 -14.75546823 135.28911222 -15.69940186 143.15783691 C-21.18210995 142.55157592 -25.70230027 140.6654785 -30.69940186 138.47033691 C-31.60239014 138.07733398 -32.50537842 137.68433105 -33.43572998 137.27941895 C-52.23616918 129.02671779 -70.78250539 120.29192532 -89.01190186 110.84533691 C-89.64998779 110.51483337 -90.28807373 110.18432983 -90.94549561 109.84381104 C-101.48608223 104.37115654 -101.48608223 104.37115654 -102.69940186 103.15783691 C-102.77166687 101.3049619 -102.78321405 99.44949814 -102.76190186 97.59533691 C-102.75287842 96.58342285 -102.74385498 95.57150879 -102.73455811 94.52893066 C-102.72295654 93.74646973 -102.71135498 92.96400879 -102.69940186 92.15783691 C-103.43199219 92.12343506 -104.16458252 92.0890332 -104.91937256 92.05358887 C-124.16946761 91.10801646 -143.33083671 89.53720161 -162.51190186 87.65783691 C-164.1770433 87.49657822 -164.1770433 87.49657822 -165.87582397 87.33206177 C-188.86712325 85.09480527 -188.86712325 85.09480527 -198.69940186 83.15783691 C-198.36940186 81.50783691 -198.03940186 79.85783691 -197.69940186 78.15783691 C-186.87567273 77.07929329 -176.13903181 77.02744772 -165.27362061 77.06018066 C-163.43132058 77.06205006 -161.58902006 77.06347149 -159.74671936 77.06446838 C-154.94150373 77.06825254 -150.13631922 77.07804689 -145.33111572 77.08917236 C-140.41026226 77.09947557 -135.48940367 77.10398493 -130.56854248 77.10900879 C-120.94548207 77.1196736 -111.32244457 77.13669959 -101.69940186 77.15783691 C-101.36940186 72.53783691 -101.03940186 67.91783691 -100.69940186 63.15783691 C-102.54920654 63.18104004 -104.39901123 63.20424316 -106.30487061 63.22814941 C-120.19481155 63.35032643 -133.80737542 63.07323382 -147.62078857 61.48742676 C-151.3630903 61.08678383 -155.11029036 60.75444214 -158.85955811 60.42736816 C-160.31163332 60.29896098 -161.76370034 60.17046114 -163.21575928 60.04187012 C-165.37638887 59.85069035 -167.53707966 59.66101426 -169.69833374 59.47702026 C-171.71747704 59.30410684 -173.7358033 59.12173443 -175.75408936 58.93908691 C-177.50955078 58.78536621 -177.50955078 58.78536621 -179.30047607 58.62854004 C-182.94554052 58.12375019 -186.1904066 57.2464693 -189.69940186 56.15783691 C-189.36940186 55.16783691 -189.03940186 54.17783691 -188.69940186 53.15783691 C-185.50374644 51.5600092 -182.00384967 51.82462006 -178.48602295 51.67712402 C-177.63717026 51.63796371 -176.78831757 51.59880341 -175.91374207 51.55845642 C-173.10028412 51.42973602 -170.28658477 51.30744243 -167.47283936 51.18518066 C-165.52511848 51.09732334 -163.57741558 51.00906661 -161.62973022 50.92042542 C-156.49738577 50.68792661 -151.36481427 50.46087066 -146.23217773 50.23492432 C-140.997147 50.00351323 -135.76234769 49.76698722 -130.52752686 49.53088379 C-120.25170595 49.06817804 -109.97563808 48.6112185 -99.69940186 48.15783691 C-99.6242334 47.16771606 -99.6242334 47.16771606 -99.54754639 46.15759277 C-99.31393049 43.13621353 -99.06925693 40.11582526 -98.82440186 37.09533691 C-98.74576904 36.05699707 -98.66713623 35.01865723 -98.58612061 33.94885254 C-97.6311627 22.3791702 -97.6311627 22.3791702 -95.69940186 18.15783691 C-92.83416748 16.46789551 -92.83416748 16.46789551 -89.10565186 15.30627441 C-88.42353638 15.08446503 -87.7414209 14.86265564 -87.03863525 14.63412476 C-84.7671469 13.90379482 -82.48524118 13.21681766 -80.19940186 12.53283691 C-78.59469104 12.03687276 -76.99053336 11.53911576 -75.38690186 11.03967285 C-72.8437181 10.248718 -70.29980499 9.46114924 -67.75189209 8.68554688 C-62.25786363 7.00241545 -56.84022711 5.17174327 -51.4385376 3.21279907 C-47.76768213 1.88740108 -44.07926229 0.61575931 -40.38763428 -0.65045166 C-38.6194365 -1.26986687 -36.85867478 -1.91100837 -35.10687256 -2.57537842 C-21.37407311 -7.75142996 -13.02632338 -6.68531036 0 0 Z " fill="#B9171A" transform="translate(226.69940185546875,58.8421630859375)"/>
<path d="M0 0 C9.08998089 4.36688487 17.93921149 9.04492049 26.6875 14.0625 C51.13469778 27.99593541 76.15276694 39.93301343 102 51 C103.37129433 51.58829076 104.74255081 52.17666975 106.11376953 52.76513672 C109.40841744 54.17854075 112.70394125 55.58988866 116 57 C116 57.66 116 58.32 116 59 C108.65214738 59.71561695 101.4053677 60.07260352 94.02734375 60.03125 C92.86229309 60.02786621 92.86229309 60.02786621 91.67370605 60.02441406 C89.78246215 60.01859261 87.89122835 60.00962797 86 60 C85.86631767 61.12633347 85.86631767 61.12633347 85.72993469 62.27542114 C84.88417318 69.36943904 84.01824349 76.46056933 83.12984943 83.54936409 C82.67387423 87.19345651 82.22561559 90.83814872 81.79516602 94.48535156 C81.37905908 98.00855782 80.94245709 101.52868103 80.49184227 105.04763412 C80.24250267 107.03663784 80.0141705 109.02823879 79.78620911 111.01980591 C79.62642075 112.24061859 79.46663239 113.46143127 79.30200195 114.71923828 C79.17098587 115.78957306 79.03996979 116.85990784 78.90498352 117.962677 C77.68826389 122.04625469 76.16398584 124.14063455 73 127 C69.95801461 127.61100585 67.69992668 127.83064388 64.66137695 127.78881836 C63.83480591 127.80105438 63.00823486 127.81329041 62.15661621 127.82589722 C59.43325075 127.85901328 56.71180169 127.84985115 53.98828125 127.83984375 C52.09447827 127.8536365 50.20069188 127.86991195 48.30693054 127.88856506 C43.32796999 127.93028356 38.34959179 127.93543408 33.3704834 127.93383789 C29.29783656 127.93871512 25.22558197 127.9695982 21.15307331 128.00185299 C16.30651739 128.03979515 11.45992775 128.06658918 6.61328125 128.08984375 C5.22084922 128.09681432 5.22084922 128.09681432 3.80028725 128.1039257 C1.18363866 128.11423556 -1.43289403 128.11703961 -4.04956055 128.11694336 C-4.82932755 128.1204631 -5.60909454 128.12398285 -6.41249084 128.12760925 C-11.7693749 128.11531255 -11.7693749 128.11531255 -14 127 C-14.14132416 119.12583228 -13.79296304 111.48503742 -12.86328125 103.66796875 C-12.6837516 102.08553375 -12.6837516 102.08553375 -12.50059509 100.47113037 C-12.11054169 97.04253987 -11.71150323 93.61505937 -11.3125 90.1875 C-10.75900087 85.34926689 -10.20984564 80.51054221 -9.66015625 75.671875 C-9.45095047 73.83948524 -9.45095047 73.83948524 -9.23751831 71.97007751 C-8.30756097 63.80149229 -7.41638831 55.62959253 -6.55859375 47.453125 C-6.44659134 46.38649124 -6.33458893 45.31985748 -6.2191925 44.22090149 C-5.79201216 40.14285292 -5.36620565 36.06467503 -4.94570923 31.9859314 C-1.83554827 1.83554827 -1.83554827 1.83554827 0 0 Z " fill="#E3181F" transform="translate(95,159)"/>
<path d="M0 0 C0.2506823 6.95288654 -0.71486501 13.47189312 -1.86328125 20.3203125 C-2.05593063 21.49657196 -2.24858002 22.67283142 -2.44706726 23.88473511 C-2.85515193 26.36799299 -3.26633343 28.85074369 -3.68041992 31.33300781 C-4.30676752 35.09060956 -4.92275242 38.8497963 -5.53710938 42.609375 C-6.49233073 48.4323176 -7.48797391 54.24730752 -8.50250244 60.06018066 C-8.93212136 62.59889062 -9.31771873 65.1377332 -9.68115234 67.68652344 C-11.01381117 75.83988544 -11.01381117 75.83988544 -13.44799805 78.70336914 C-15.55958976 80.16259 -17.61377803 81.04903498 -20 82 C-21.04446289 82.48742676 -22.08892578 82.97485352 -23.16503906 83.47705078 C-26.959331 85.23686565 -30.78396071 86.90820991 -34.625 88.5625 C-35.31532318 88.86181427 -36.00564636 89.16112854 -36.71688843 89.46951294 C-46.70850738 93.80036686 -56.74088041 98.03588804 -66.83099365 102.1322937 C-68.14795656 102.66745567 -69.46376592 103.20546553 -70.77838135 103.74636841 C-72.6047438 104.49573568 -74.43701215 105.23066062 -76.26953125 105.96484375 C-77.30698486 106.3837085 -78.34443848 106.80257324 -79.41333008 107.23413086 C-82 108 -82 108 -85 107 C-84.25423379 99.33999454 -83.50659438 91.68017373 -82.75671577 84.0205698 C-82.40838236 80.46195917 -82.06063827 76.90329323 -81.71435547 73.34448242 C-81.57912477 71.95556415 -81.44387101 70.56664812 -81.30859375 69.17773438 C-81.24222591 68.49605383 -81.17585808 67.81437328 -81.1074791 67.11203575 C-80.6517191 62.44351836 -80.1819561 57.77656934 -79.70800781 53.10986328 C-79.276296 48.85523156 -78.87634868 44.60207299 -78.53417969 40.33935547 C-78.39526395 38.7978442 -78.25627514 37.25633952 -78.1171875 35.71484375 C-78.01776855 34.45663818 -77.91834961 33.19843262 -77.81591797 31.90209961 C-77 29 -77 29 -74.98535156 27.30737305 C-71.05462158 25.58599105 -67.11375246 23.93018964 -63.1171875 22.3671875 C-61.80740433 21.84933182 -61.80740433 21.84933182 -60.47116089 21.3210144 C-57.64972173 20.20809623 -54.82537052 19.10289692 -52 18 C-50.59917175 17.45261169 -50.59917175 17.45261169 -49.17004395 16.89416504 C-43.45861093 14.66523499 -37.74188502 12.45023547 -32.02197266 10.24316406 C-29.0777022 9.10674415 -26.13452562 7.96752224 -23.19140625 6.828125 C-21.29693898 6.09618854 -19.4024101 5.36441154 -17.5078125 4.6328125 C-16.20470627 4.12815964 -16.20470627 4.12815964 -14.87527466 3.61331177 C-2.39275808 -1.19637904 -2.39275808 -1.19637904 0 0 Z " fill="#E2181E" transform="translate(299,94)"/>
<path d="M0 0 C2.2077082 0.86949269 4.41749989 1.73370645 6.62890625 2.59375 C8.94242276 3.55694973 11.25359799 4.52579064 13.5625 5.5 C15.34237305 6.22896484 15.34237305 6.22896484 17.15820312 6.97265625 C18.28291016 7.44574219 19.40761719 7.91882813 20.56640625 8.40625 C21.58677979 8.83228516 22.60715332 9.25832031 23.65844727 9.69726562 C26 11 26 11 27 14 C19.76348529 16.59664304 12.52672116 19.19259006 5.28979492 21.78808594 C2.8353123 22.66846498 0.38088382 23.54899496 -2.07348633 24.4296875 C-3.259021 24.85507813 -4.44455566 25.28046875 -5.66601562 25.71875 C-6.84088531 26.14041443 -8.015755 26.56207886 -9.22622681 26.996521 C-11.56503226 27.83459684 -13.90452714 28.67075127 -16.24472046 29.50494385 C-21.27838481 31.29965067 -26.30535434 33.10403698 -31.30517578 34.99121094 C-32.08538589 35.28091766 -32.86559601 35.57062439 -33.66944885 35.86911011 C-35.06110896 36.38698927 -36.4489307 36.91538364 -37.83140564 37.45730591 C-41.92908507 38.96639377 -44.77237621 39.0681249 -49 38 C-49 38.66 -49 39.32 -49 40 C-54.105182 41.80476161 -57.40231077 39.88030934 -62 37.6875 C-63.395598 37.04506144 -64.79142611 36.40312251 -66.1875 35.76171875 C-66.84468018 35.45476074 -67.50186035 35.14780273 -68.17895508 34.83154297 C-70.421778 33.80740369 -72.70861725 32.90914827 -75 32 C-77.8125 30.5 -77.8125 30.5 -80 29 C-80 28.34 -80 27.68 -80 27 C-80.66 26.67 -81.32 26.34 -82 26 C-75.82128406 20.60448547 -69.47169391 18.00753657 -61.75 15.4375 C-59.26734661 14.59101139 -56.78558635 13.74221305 -54.3046875 12.890625 C-53.64997467 12.66755173 -52.99526184 12.44447845 -52.32070923 12.21464539 C-46.99993396 10.38674052 -41.75390625 8.39030936 -36.5078125 6.359375 C-34.09058704 5.43733192 -31.67229445 4.51815235 -29.25354004 3.60012817 C-27.67961133 2.9962234 -26.10942044 2.38247661 -24.54333496 1.7585144 C-9.03539548 -4.40497719 -9.03539548 -4.40497719 0 0 Z " fill="#E0161D" transform="translate(270,77)"/>
<path d="M0 0 C3.69237513 2.00556272 7.57251217 3.5655377 11.44284058 5.19107056 C13.69711631 6.18173636 15.94477952 7.18635053 18.19284058 8.19107056 C18.19284058 8.85107056 18.19284058 9.51107056 18.19284058 10.19107056 C15.33930237 11.15130881 12.48504503 12.10931069 9.63034058 13.06607056 C8.83047729 13.33548462 8.03061401 13.60489868 7.20651245 13.88247681 C6.41696167 14.14673462 5.62741089 14.41099243 4.81393433 14.68325806 C4.09649048 14.92415161 3.37904663 15.16504517 2.63986206 15.41323853 C-0.49055354 16.40830029 -3.64697558 17.29493242 -6.80715942 18.19107056 C-9.90890577 19.09093621 -13.00835556 19.99863558 -16.10794067 20.90591431 C-16.98435715 21.16232193 -17.86077362 21.41872955 -18.76374817 21.6829071 C-20.61020187 22.22319312 -22.45662156 22.76359536 -24.30300903 23.30410767 C-27.10049587 24.12296118 -29.89815715 24.94121667 -32.6958313 25.75942993 C-34.49987843 26.28738826 -36.30391522 26.81538191 -38.10794067 27.34341431 C-38.93119339 27.58414169 -39.75444611 27.82486908 -40.60264587 28.07289124 C-41.40014755 28.30645828 -42.19764923 28.54002533 -43.01931763 28.78067017 C-43.80005646 29.00882416 -44.58079529 29.23697815 -45.38519287 29.4720459 C-47.09217797 29.97880945 -48.79565977 30.49744812 -50.49645996 31.02459717 C-51.37782623 31.29682098 -52.2591925 31.5690448 -53.16726685 31.84951782 C-53.9621904 32.09863419 -54.75711395 32.34775055 -55.5761261 32.60441589 C-58.7407626 33.43656338 -61.56320511 33.5220863 -64.80715942 33.19107056 C-65.79715942 32.53107056 -66.78715942 31.87107056 -67.80715942 31.19107056 C-69.37451727 30.64304334 -70.96064035 30.14721886 -72.55715942 29.69107056 C-73.87587036 29.31015259 -73.87587036 29.31015259 -75.22122192 28.92153931 C-76.0745813 28.68048462 -76.92794067 28.43942993 -77.80715942 28.19107056 C-78.5367688 27.98095337 -79.26637817 27.77083618 -80.01809692 27.55435181 C-81.61314692 27.09536803 -83.20994304 26.64245779 -84.80715942 26.19107056 C-85.13715942 23.22107056 -85.46715942 20.25107056 -85.80715942 17.19107056 C-83.89433817 16.34894799 -81.97673469 15.51768192 -80.05715942 14.69107056 C-78.98981567 14.22700806 -77.92247192 13.76294556 -76.82278442 13.28482056 C-73.80715942 12.19107056 -73.80715942 12.19107056 -69.80715942 12.19107056 C-69.47715942 11.20107056 -69.14715942 10.21107056 -68.80715942 9.19107056 C-66.8853302 8.16905212 -66.8853302 8.16905212 -64.32937622 7.25479126 C-63.37294724 6.90886429 -62.41651825 6.56293732 -61.43110657 6.20652771 C-56.97521071 4.6771111 -52.51600585 3.16147218 -48.040802 1.68936157 C-45.70121273 0.90702869 -43.3705917 0.0972743 -41.05056763 -0.74130249 C-25.30842898 -6.42580693 -14.93847568 -8.39459914 0 0 Z " fill="#DF171E" transform="translate(226.80715942382813,58.808929443359375)"/>
<path d="M0 0 C0 0.99 0 1.98 0 3 C-2.61167103 5.61167103 -4.9721059 6.07131482 -8.5 7.125 C-9.6653125 7.47820312 -10.830625 7.83140625 -12.03125 8.1953125 C-15 9 -15 9 -17 9 C-17.08226668 12.04386724 -16.97608217 14.07175348 -16 17 C-15.01 17.33 -14.02 17.66 -13 18 C-13 18.99 -13 19.98 -13 21 C-11.0830014 20.68954268 -9.16641277 20.37655329 -7.25 20.0625 C-6.18265625 19.88847656 -5.1153125 19.71445313 -4.015625 19.53515625 C-1.12823852 19.06395502 -1.12823852 19.06395502 1.15625 18.4375 C4.08813597 17.74179825 7.00294312 17.94236429 10 18 C7.23621251 19.84252499 5.70446927 20.47156806 2.5703125 21.21875 C1.69882568 21.42790039 0.82733887 21.63705078 -0.07055664 21.85253906 C-0.99602295 22.06620117 -1.92148926 22.27986328 -2.875 22.5 C-3.8230249 22.72139648 -4.7710498 22.94279297 -5.74780273 23.17089844 C-12.79342241 24.78688278 -19.81524843 26.16275253 -27 27 C-27.93070313 27.11085937 -28.86140625 27.22171875 -29.8203125 27.3359375 C-38.86318453 28.2476167 -47.92326926 28.09076731 -57 28 C-57 26.68 -57 25.36 -57 24 C-55.98389648 23.59273682 -54.96779297 23.18547363 -53.92089844 22.76586914 C-26.7422053 11.89360891 -26.7422053 11.89360891 0 0 Z " fill="#DD151B" transform="translate(271,191)"/>
<path d="M0 0 C0.495 0.99 0.495 0.99 1 2 C3.31 2 5.62 2 8 2 C8 2.33 8 2.66 8 3 C2.06 3 -3.88 3 -10 3 C-9.505 4.98 -9.505 4.98 -9 7 C-6.50965614 8.29660434 -6.50965614 8.29660434 -4 9 C-4 9.33 -4 9.66 -4 10 C-8.99092404 10.87236792 -13.39844902 10.98461331 -18.4375 10.51171875 C-19.46315063 10.41682915 -19.46315063 10.41682915 -20.50952148 10.32002258 C-21.94520391 10.18518667 -23.38051236 10.04631254 -24.81542969 9.90356445 C-26.99323534 9.68816906 -29.172084 9.48868126 -31.3515625 9.29101562 C-32.75529895 9.15719721 -34.15894837 9.02246197 -35.5625 8.88671875 C-37.45162109 8.70435669 -37.45162109 8.70435669 -39.37890625 8.51831055 C-43.10281513 7.98528341 -46.41602157 7.11538067 -50 6 C-49.67 5.01 -49.34 4.02 -49 3 C-46.64796892 1.82398446 -45.08313361 1.80814707 -42.45849609 1.70288086 C-41.04725967 1.6429319 -41.04725967 1.6429319 -39.60751343 1.58177185 C-38.58976837 1.54318558 -37.57202332 1.5045993 -36.5234375 1.46484375 C-35.48305328 1.42186661 -34.44266907 1.37888947 -33.37075806 1.33460999 C-30.03899645 1.19796504 -26.70702047 1.06766454 -23.375 0.9375 C-21.11977474 0.84612003 -18.86456611 0.75432848 -16.609375 0.66210938 C-11.07310106 0.43662522 -5.53663788 0.21635319 0 0 Z " fill="#CA171C" transform="translate(87,109)"/>
<path d="M0 0 C-0.33 1.65 -0.66 3.3 -1 5 C-2.32 4.67 -3.64 4.34 -5 4 C-5 3.34 -5 2.68 -5 2 C-6.299375 2.12375 -7.59875 2.2475 -8.9375 2.375 C-9.66839844 2.44460937 -10.39929688 2.51421875 -11.15234375 2.5859375 C-11.76207031 2.72257812 -12.37179688 2.85921875 -13 3 C-13.33 3.66 -13.66 4.32 -14 5 C-11.525 5.495 -11.525 5.495 -9 6 C-9 6.66 -9 7.32 -9 8 C14.1 8 37.2 8 61 8 C61 8.33 61 8.66 61 9 C50.19371246 9.0233122 39.38743105 9.04101034 28.58112335 9.05181217 C23.56172285 9.0570001 18.54233972 9.06402216 13.52294922 9.07543945 C8.6664666 9.08641531 3.81000055 9.09230752 -1.04649353 9.09487724 C-2.88655355 9.0967053 -4.72661281 9.10027406 -6.56666565 9.10573006 C-37.61198721 9.19400639 -37.61198721 9.19400639 -42 7 C-41.67 5.68 -41.34 4.36 -41 3 C-36.28283161 2.50116186 -31.56550453 2.00408465 -26.84765625 1.51171875 C-24.20768597 1.23549544 -21.57036735 0.95019545 -18.93359375 0.64453125 C-12.61466289 -0.07376567 -6.3556291 -0.09828292 0 0 Z " fill="#B3141B" transform="translate(54,83)"/>
<path d="M0 0 C0 0.33 0 0.66 0 1 C-2.31 1.33 -4.62 1.66 -7 2 C-7 2.99 -7 3.98 -7 5 C-7.70125 4.855625 -8.4025 4.71125 -9.125 4.5625 C-12.07556141 3.98521625 -15.03270151 3.48304859 -18 3 C-18.33 3.66 -18.66 4.32 -19 5 C-20.65 5 -22.3 5 -24 5 C-20.8035914 6.06546953 -18.34252724 6.07427838 -15 6 C-14.505 6.99 -14.505 6.99 -14 8 C-11.32012807 8.47109811 -11.32012807 8.47109811 -8.1875 8.625 C-7.12917969 8.69976562 -6.07085937 8.77453125 -4.98046875 8.8515625 C-2.65600081 8.96732892 -0.32734894 9 2 9 C2 9.66 2 10.32 2 11 C-4.08722746 11.04934154 -10.1743392 11.08569167 -16.26171875 11.10986328 C-18.33367947 11.11993712 -20.40562593 11.13359666 -22.47753906 11.15087891 C-25.45120764 11.17506664 -28.4246887 11.18646908 -31.3984375 11.1953125 C-32.79381241 11.21079636 -32.79381241 11.21079636 -34.21737671 11.22659302 C-35.07811798 11.22674408 -35.93885925 11.22689514 -36.82568359 11.22705078 C-37.58513275 11.231492 -38.34458191 11.23593323 -39.12704468 11.24050903 C-41 11 -41 11 -43 9 C-45.66949409 8.75684344 -45.66949409 8.75684344 -48.625 8.875 C-49.62789062 8.89304687 -50.63078125 8.91109375 -51.6640625 8.9296875 C-52.82035156 8.96449219 -52.82035156 8.96449219 -54 9 C-54 8.67 -54 8.34 -54 8 C-51.36 7.67 -48.72 7.34 -46 7 C-46 6.34 -46 5.68 -46 5 C-44.54207116 4.94600264 -43.08357288 4.90720823 -41.625 4.875 C-40.81289063 4.85179688 -40.00078125 4.82859375 -39.1640625 4.8046875 C-37 5 -37 5 -35 7 C-34.34 6.67 -33.68 6.34 -33 6 C-33.33 5.34 -33.66 4.68 -34 4 C-33.34 4 -32.68 4 -32 4 C-32 3.34 -32 2.68 -32 2 C-9.19872014 -0.38776806 -9.19872014 -0.38776806 0 0 Z " fill="#D31318" transform="translate(86,80)"/>
<path d="M0 0 C0.33 0 0.66 0 1 0 C1.42304349 12.17865838 0.13474499 24.20252432 -1 36.3125 C-1.19324521 38.42117483 -1.38595782 40.52989853 -1.578125 42.63867188 C-2.04594557 47.75969873 -2.52096644 52.88001037 -3 58 C-6.95867438 57.44352513 -10.36708948 56.61297065 -14.0390625 55.0390625 C-15.40417969 54.45511719 -15.40417969 54.45511719 -16.796875 53.859375 C-17.73015625 53.45203125 -18.6634375 53.0446875 -19.625 52.625 C-20.56601563 52.22539062 -21.50703125 51.82578125 -22.4765625 51.4140625 C-26.6962289 49.59193383 -30.39124844 47.88596574 -34 45 C-32.02 45 -30.04 45 -28 45 C-28 45.66 -28 46.32 -28 47 C-27.36707031 47.08121094 -26.73414063 47.16242188 -26.08203125 47.24609375 C-21.7040282 48.31701211 -17.77735795 50.19349625 -13.6875 52.0625 C-12.85154297 52.43955078 -12.01558594 52.81660156 -11.15429688 53.20507812 C-9.10072738 54.13211807 -7.04943713 55.06386878 -5 56 C-5.01160156 55.09636719 -5.02320313 54.19273437 -5.03515625 53.26171875 C-5.04417969 52.08222656 -5.05320313 50.90273437 -5.0625 49.6875 C-5.07410156 48.51574219 -5.08570313 47.34398437 -5.09765625 46.13671875 C-5 43 -5 43 -4 40 C-4 39.01 -4 38.02 -4 37 C-3.5919634 27.8084388 -2.93934266 18.65292696 -2 9.5 C-1.9170166 8.66919922 -1.8340332 7.83839844 -1.74853516 6.98242188 C-1.12243684 1.12243684 -1.12243684 1.12243684 0 0 Z " fill="#930B0F" transform="translate(214,144)"/>
<path d="M0 0 C0.10528188 5.41148855 -0.22873776 10.41817412 -1.09375 15.78125 C-1.20473022 16.48020386 -1.31571045 17.17915771 -1.43005371 17.89929199 C-1.7809107 20.10050339 -2.14029055 22.3002198 -2.5 24.5 C-2.74145399 26.00511723 -2.98234445 27.51032498 -3.22265625 29.015625 C-3.80860274 32.67815097 -4.40219346 36.33938887 -5 40 C-5.33 40 -5.66 40 -6 40 C-5.99476318 39.36908447 -5.98952637 38.73816895 -5.98413086 38.08813477 C-5.96342174 35.24626653 -5.95035934 32.40441412 -5.9375 29.5625 C-5.92912109 28.56927734 -5.92074219 27.57605469 -5.91210938 26.55273438 C-5.90888672 25.60849609 -5.90566406 24.66425781 -5.90234375 23.69140625 C-5.89710693 22.81685791 -5.89187012 21.94230957 -5.88647461 21.04125977 C-5.77215191 19.00559794 -5.77215191 19.00559794 -7 18 C-7.07313567 15.46950598 -7.09247527 12.96695163 -7.0625 10.4375 C-7.05798828 9.72658203 -7.05347656 9.01566406 -7.04882812 8.28320312 C-7.03700864 6.52209987 -7.01907263 4.76103964 -7 3 C-7.99 2.67 -8.98 2.34 -10 2 C-8.71211992 1.46987262 -7.41953322 0.9511671 -6.125 0.4375 C-5.40570313 0.14746094 -4.68640625 -0.14257812 -3.9453125 -0.44140625 C-2 -1 -2 -1 0 0 Z " fill="#DC161A" transform="translate(299,94)"/>
<path d="M0 0 C9.9 0 19.8 0 30 0 C30 0.33 30 0.66 30 1 C27.03 1 24.06 1 21 1 C21 1.66 21 2.32 21 3 C15.39 3 9.78 3 4 3 C2.68 12.9 1.36 22.8 0 33 C-2 31 -2 31 -2.1875 27.9375 C-2 25 -2 25 -1 24 C-1 22.948125 -1 21.89625 -1 20.8125 C-1 17 -1 17 -0.5 14.25 C0.2227161 9.55234535 0 4.75292308 0 0 Z " fill="#C90A0D" transform="translate(177,216)"/>
<path d="M0 0 C7.91909556 2.45765035 15.41985296 5.66818573 23 9 C23 9.66 23 10.32 23 11 C20.06497405 12.00736628 17.12660539 13.00460504 14.1875 14 C13.35412109 14.28617188 12.52074219 14.57234375 11.66210938 14.8671875 C10.85966797 15.13789062 10.05722656 15.40859375 9.23046875 15.6875 C8.12288208 16.06455078 8.12288208 16.06455078 6.99291992 16.44921875 C5 17 5 17 2 17 C2 16.34 2 15.68 2 15 C3.32 14.67 4.64 14.34 6 14 C6 13.34 6 12.68 6 12 C5.34 11.67 4.68 11.34 4 11 C5.65 10.67 7.3 10.34 9 10 C9 10.66 9 11.32 9 12 C9.99 11.67 10.98 11.34 12 11 C11.06955722 7.77553449 10.58896973 6.33696793 7.6171875 4.63671875 C6.25980469 4.16685547 6.25980469 4.16685547 4.875 3.6875 C3.96492187 3.36136719 3.05484375 3.03523438 2.1171875 2.69921875 C1.41851562 2.46847656 0.71984375 2.23773438 0 2 C0 1.34 0 0.68 0 0 Z " fill="#D21B1F" transform="translate(222,58)"/>
<path d="M0 0 C0.33 0 0.66 0 1 0 C1.47660568 4.00348773 1.18673135 5.70457052 -0.99836731 9.16163635 C-3.3730474 11.84717207 -4.03215043 12.00645766 -7.81474304 12.76622009 C-9.32224413 12.80417518 -10.83078707 12.80957366 -12.33862305 12.78881836 C-13.16519409 12.80105438 -13.99176514 12.81329041 -14.84338379 12.82589722 C-17.56674925 12.85901328 -20.28819831 12.84985115 -23.01171875 12.83984375 C-24.90552173 12.8536365 -26.79930812 12.86991195 -28.69306946 12.88856506 C-33.67203001 12.93028356 -38.65040821 12.93543408 -43.6295166 12.93383789 C-47.70216344 12.93871512 -51.77441803 12.9695982 -55.84692669 13.00185299 C-60.69348261 13.03979515 -65.54007225 13.06658918 -70.38671875 13.08984375 C-71.31500677 13.0944908 -72.24329479 13.09913784 -73.19971275 13.1039257 C-75.81636134 13.11423556 -78.43289403 13.11703961 -81.04956055 13.11694336 C-81.82932755 13.1204631 -82.60909454 13.12398285 -83.41249084 13.12760925 C-88.7693749 13.11531255 -88.7693749 13.11531255 -91 12 C-91 8.7 -91 5.4 -91 2 C-90.01 2.495 -90.01 2.495 -89 3 C-89.33 5.64 -89.66 8.28 -90 11 C-79.39481781 10.89243001 -68.78970285 10.77978264 -58.18464375 10.66066074 C-53.26024389 10.60550655 -48.33583803 10.55209861 -43.41137695 10.50268555 C-38.65863644 10.45493124 -33.90596663 10.40258457 -29.15331078 10.34705925 C-27.34046376 10.3266858 -25.52759739 10.30796456 -23.71471596 10.29092598 C-21.17472981 10.26677086 -18.63487607 10.23673178 -16.0949707 10.20532227 C-15.34618652 10.1995668 -14.59740234 10.19381134 -13.82592773 10.18788147 C-10.10031118 10.13554564 -6.62434488 9.88545916 -3 9 C-3 8.34 -3 7.68 -3 7 C-2.34 7 -1.68 7 -1 7 C-0.67 4.69 -0.34 2.38 0 0 Z " fill="#B11618" transform="translate(172,274)"/>
<path d="M0 0 C0.33 0 0.66 0 1 0 C2.15244267 7.35071542 1.84415629 14.03536678 0.76220703 21.33984375 C0.18124535 25.27431608 -0.0060073 29.02917392 0 33 C-0.495 33.495 -0.495 33.495 -1 34 C-1.44986225 37.4892677 -1.81887973 40.97757326 -2.16210938 44.47851562 C-2.63396065 48.90164183 -3.40264943 52.80946105 -5 57 C-5.33 57 -5.66 57 -6 57 C-5.44769359 44.21520698 -4.09178173 31.62262904 -2.4375 18.9375 C-2.20064563 17.08795794 -1.96431475 15.23834876 -1.72851562 13.38867188 C-1.15834958 8.92498782 -0.58119861 4.46226038 0 0 Z " fill="#C1141A" transform="translate(108,21)"/>
<path d="M0 0 C0.66 0 1.32 0 2 0 C2.34231897 10.73512296 -1.097114 20.62317046 -5.5625 30.25 C-5.85519775 30.88164062 -6.14789551 31.51328125 -6.44946289 32.1640625 C-7.94165378 35.24341334 -9.35949239 37.78486292 -12 40 C-11.45768102 37.01724561 -10.76188274 34.21950454 -9.875 31.3125 C-8.64945363 28.15041626 -8.64945363 28.15041626 -10 26 C-9.78258933 22.84754533 -8.93005104 21.9318918 -6.625 19.6875 C-1.00143409 13.93003966 -0.45044213 7.71964612 0 0 Z " fill="#C5141A" transform="translate(365,118)"/>
<path d="M0 0 C1.03125 0.00322266 2.0625 0.00644531 3.125 0.00976562 C4.74535156 0.02233398 4.74535156 0.02233398 6.3984375 0.03515625 C8.03039062 0.04192383 8.03039062 0.04192383 9.6953125 0.04882812 C12.38807539 0.06063849 15.08072938 0.07710847 17.7734375 0.09765625 C17.4434375 0.75765625 17.1134375 1.41765625 16.7734375 2.09765625 C14.70703125 2.73046875 14.70703125 2.73046875 12.2109375 3.22265625 C11.38464844 3.39023438 10.55835937 3.5578125 9.70703125 3.73046875 C9.06894531 3.85164063 8.43085937 3.9728125 7.7734375 4.09765625 C7.7734375 4.75765625 7.7734375 5.41765625 7.7734375 6.09765625 C1.99536726 6.33349585 -2.73981054 5.96548671 -8.2265625 4.09765625 C-7.8965625 3.10765625 -7.5665625 2.11765625 -7.2265625 1.09765625 C-4.66933021 -0.1809599 -2.85919148 -0.01570984 0 0 Z " fill="#B71A1D" transform="translate(45.2265625,110.90234375)"/>
<path d="M0 0 C0.33 0 0.66 0 1 0 C1.05455703 2.97941998 1.09393851 5.95781531 1.125 8.9375 C1.15013672 10.18370117 1.15013672 10.18370117 1.17578125 11.45507812 C1.22107288 17.27505267 0.4456695 22.3596123 -1 28 C-1.66 28 -2.32 28 -3 28 C-2.98839844 28.80824219 -2.97679687 29.61648437 -2.96484375 30.44921875 C-2.95130859 32.05216797 -2.95130859 32.05216797 -2.9375 33.6875 C-2.92589844 34.74324219 -2.91429687 35.79898438 -2.90234375 36.88671875 C-2.99182415 39.73935401 -3.37123396 42.22603217 -4 45 C-4.34403308 47.33177975 -4.67949202 49.66487041 -5 52 C-5.66 52 -6.32 52 -7 52 C-6.41422255 40.76980939 -4.69797653 29.78103886 -2.9375 18.6875 C-2.65253531 16.86791044 -2.36802683 15.04824937 -2.08398438 13.22851562 C-1.39457213 8.81816956 -0.6990197 4.40883309 0 0 Z " fill="#BD1519" transform="translate(308,106)"/>
<path d="M0 0 C0.66 0.33 1.32 0.66 2 1 C1.01 2.32 0.02 3.64 -1 5 C-0.01 6.32 0.98 7.64 2 9 C1.360625 9.598125 0.72125 10.19625 0.0625 10.8125 C-2.20310389 12.90810337 -2.20310389 12.90810337 -3 16 C-2.01 16.33 -1.02 16.66 0 17 C-0.48082031 17.54140625 -0.96164063 18.0828125 -1.45703125 18.640625 C-3.31323558 21.47897288 -3.48737656 23.38792626 -3.6875 26.75 C-3.75324219 27.73484375 -3.81898438 28.7196875 -3.88671875 29.734375 C-3.92410156 30.48203125 -3.96148437 31.2296875 -4 32 C-4.99 31.67 -5.98 31.34 -7 31 C-6.71997626 27.31152011 -6.42388531 23.6244956 -6.125 19.9375 C-6.04636719 18.89916016 -5.96773437 17.86082031 -5.88671875 16.79101562 C-4.99936224 6.04035027 -4.99936224 6.04035027 -3 1 C-2.01 0.67 -1.02 0.34 0 0 Z " fill="#A11315" transform="translate(134,76)"/>
<path d="M0 0 C0.33 0 0.66 0 1 0 C1.19397476 1.97854258 1.38001321 3.9578648 1.5625 5.9375 C1.66691406 7.03964844 1.77132812 8.14179687 1.87890625 9.27734375 C1.91886719 10.17582031 1.95882812 11.07429688 2 12 C1.67 12.33 1.34 12.66 1 13 C0.60056824 15.52195967 0.24920152 18.02963656 -0.0625 20.5625 C-0.15337891 21.27341797 -0.24425781 21.98433594 -0.33789062 22.71679688 C-0.56239503 24.47738403 -0.78168397 26.23863478 -1 28 C-5.6015625 30.1015625 -5.6015625 30.1015625 -9.1875 29.1875 C-10.81084387 28.50208814 -12.42392012 27.78803994 -14 27 C-14 26.34 -14 25.68 -14 25 C-15.32 25 -16.64 25 -18 25 C-18 24.34 -18 23.68 -18 23 C-13.85463414 23.60961263 -10.72562475 25.13718763 -7 27 C-6.01 27 -5.02 27 -4 27 C-3.9498877 26.35973877 -3.89977539 25.71947754 -3.84814453 25.05981445 C-3.61524793 22.14332584 -3.37024399 19.22797522 -3.125 16.3125 C-3.04636719 15.30509766 -2.96773437 14.29769531 -2.88671875 13.25976562 C-2.80292969 12.28330078 -2.71914062 11.30683594 -2.6328125 10.30078125 C-2.55949707 9.40528564 -2.48618164 8.50979004 -2.41064453 7.5871582 C-1.97283463 4.82885174 -1.12791138 2.54683192 0 0 Z " fill="#971518" transform="translate(184,102)"/>
<path d="M0 0 C11.15889691 3.0551543 11.15889691 3.0551543 15 6 C15 6.66 15 7.32 15 8 C9.39 9.98 3.78 11.96 -2 14 C-1.67 12.02 -1.34 10.04 -1 8 C1.07553648 7.4465236 2.84365964 7 5 7 C4.67 5.35 4.34 3.7 4 2 C2.68 1.67 1.36 1.34 0 1 C0 0.67 0 0.34 0 0 Z " fill="#CF0D14" transform="translate(282,83)"/>
<path d="M0 0 C-5.94324022 2.14065401 -11.88822766 4.27639831 -17.83447266 6.40869141 C-19.85831912 7.13509206 -21.88175855 7.86262778 -23.90478516 8.59130859 C-26.80786307 9.63675801 -29.71236654 10.67815511 -32.6171875 11.71875 C-33.52556366 12.04685669 -34.43393982 12.37496338 -35.36984253 12.7130127 C-36.21056305 13.01332397 -37.05128357 13.31363525 -37.91748047 13.62304688 C-39.03000687 14.02275696 -39.03000687 14.02275696 -40.16500854 14.43054199 C-42 15 -42 15 -44 15 C-43.505 13.515 -43.505 13.515 -43 12 C-40.3046875 10.9375 -40.3046875 10.9375 -36.875 10 C-31.4041768 8.45300178 -31.4041768 8.45300178 -26.125 6.375 C-22.8027537 4.91321163 -19.49350533 3.97041815 -16 3 C-14.6696875 2.443125 -14.6696875 2.443125 -13.3125 1.875 C-11 1 -11 1 -7 1 C-7 0.34 -7 -0.32 -7 -1 C-3.51418144 -2.2020064 -3.32007656 -2.21338437 0 0 Z " fill="#BC0F15" transform="translate(272,100)"/>
<path d="M0 0 C2.64 0.33 5.28 0.66 8 1 C8 1.66 8 2.32 8 3 C8.66 3.33 9.32 3.66 10 4 C9.01 4.33 8.02 4.66 7 5 C7 5.66 7 6.32 7 7 C-0.75 7.125 -0.75 7.125 -3 6 C-4.70363822 5.77377919 -6.41328701 5.59111527 -8.125 5.4375 C-9.03507812 5.35371094 -9.94515625 5.26992187 -10.8828125 5.18359375 C-11.58148437 5.12300781 -12.28015625 5.06242188 -13 5 C-13 4.34 -13 3.68 -13 3 C-12.14535156 2.95101562 -11.29070313 2.90203125 -10.41015625 2.8515625 C-9.30542969 2.77679688 -8.20070313 2.70203125 -7.0625 2.625 C-5.40927734 2.52058594 -5.40927734 2.52058594 -3.72265625 2.4140625 C-2.37494141 2.20910156 -2.37494141 2.20910156 -1 2 C-0.67 1.34 -0.34 0.68 0 0 Z " fill="#D61013" transform="translate(42,136)"/>
<path d="M0 0 C0.66 0 1.32 0 2 0 C2 2.97 2 5.94 2 9 C2.99 9.33 3.98 9.66 5 10 C4.34 11.32 3.68 12.64 3 14 C2.67 13.67 2.34 13.34 2 13 C1.93941406 13.59167969 1.87882813 14.18335938 1.81640625 14.79296875 C1.37930286 18.91518994 0.86096945 22.94114403 0 27 C0 27.66 0 28.32 0 29 C1.65 29 3.3 29 5 29 C2.38058783 30.74627478 0.96175123 31.38722388 -2 32 C-3.49886387 29.00227225 -2.78938549 26.55494991 -2.44140625 23.2421875 C-2.37340317 22.57913605 -2.30540009 21.91608459 -2.2353363 21.23294067 C-2.0166198 19.11300578 -1.78966048 16.99404509 -1.5625 14.875 C-1.41286823 13.43885858 -1.26377294 12.00266115 -1.11523438 10.56640625 C-0.74971494 7.04359948 -0.37679759 3.52162036 0 0 Z " fill="#C31215" transform="translate(217,170)"/>
<path d="M0 0 C1.134375 0.020625 2.26875 0.04125 3.4375 0.0625 C-0.67417957 2.80361971 -5.09197438 4.55817103 -9.625 6.5 C-10.52927734 6.89509766 -11.43355469 7.29019531 -12.36523438 7.69726562 C-18.33003584 10.25969999 -24.30323673 12.34109665 -30.5625 14.0625 C-30.5625 13.4025 -30.5625 12.7425 -30.5625 12.0625 C-29.60150391 11.69898438 -29.60150391 11.69898438 -28.62109375 11.328125 C-24.59655962 9.768693 -20.69073275 8.25448062 -17 6 C-13.50603729 4.03067556 -10.20063116 2.83406861 -6.3828125 1.67578125 C-1.48622981 0.02607421 -1.48622981 0.02607421 0 0 Z " fill="#BB111A" transform="translate(257.5625,182.9375)"/>
<path d="M0 0 C-1.32 0.33 -2.64 0.66 -4 1 C-4 1.66 -4 2.32 -4 3 C-3.04480469 2.91621094 -2.08960938 2.83242187 -1.10546875 2.74609375 C6.7509025 2.12729681 14.15270455 1.93955467 22 3 C22 3.33 22 3.66 22 4 C11.98707052 5.09945892 2.05598201 5.10055982 -8 5 C-8 3.68 -8 2.36 -8 1 C-3.375 -1.125 -3.375 -1.125 0 0 Z " fill="#B7191C" transform="translate(222,214)"/>
<path d="M0 0 C1.98 0 3.96 0 6 0 C6 0.66 6 1.32 6 2 C6.63292969 2.08121094 7.26585937 2.16242188 7.91796875 2.24609375 C12.2959718 3.31701211 16.22264205 5.19349625 20.3125 7.0625 C21.56643555 7.62807617 21.56643555 7.62807617 22.84570312 8.20507812 C24.89927262 9.13211807 26.95056287 10.06386878 29 11 C29.33 8.36 29.66 5.72 30 3 C30.33 3 30.66 3 31 3 C31 6.3 31 9.6 31 13 C24.97999758 12.41612017 19.85557089 10.01707238 14.375 7.625 C13.43398437 7.22539062 12.49296875 6.82578125 11.5234375 6.4140625 C7.3037711 4.59193383 3.60875156 2.88596574 0 0 Z " fill="#8B141B" transform="translate(180,189)"/>
<path d="M0 0 C-2.64738916 1.4606285 -3.89448334 2 -7 2 C-7 2.66 -7 3.32 -7 4 C-17.37357631 8.59225513 -17.37357631 8.59225513 -23 8 C-23 8.66 -23 9.32 -23 10 C-26.3 10.66 -29.6 11.32 -33 12 C-33 11.34 -33 10.68 -33 10 C-28.62518185 8.40546494 -24.24695568 6.82082798 -19.86523438 5.24536133 C-18.37433963 4.70772285 -16.88442233 4.16736594 -15.39550781 3.62426758 C-13.25835718 2.84524629 -11.11791152 2.0759868 -8.9765625 1.30859375 C-8.30879791 1.06282089 -7.64103333 0.81704803 -6.95303345 0.56382751 C-2.22774341 -1.11387171 -2.22774341 -1.11387171 0 0 Z " fill="#BD1619" transform="translate(240,83)"/>
<path d="M0 0 C0.99 0.33 1.98 0.66 3 1 C2.67 1.66 2.34 2.32 2 3 C3.98 2.67 5.96 2.34 8 2 C5 4 5 4 3 4 C3 4.66 3 5.32 3 6 C1.39935157 6.53154742 -0.20568874 7.04988353 -1.8125 7.5625 C-2.70582031 7.85253906 -3.59914062 8.14257812 -4.51953125 8.44140625 C-7 9 -7 9 -10 8 C-9.360625 7.21625 -8.72125 6.4325 -8.0625 5.625 C-6.01857687 3.20460719 -6.01857687 3.20460719 -5 1 C-3.35 1.33 -1.7 1.66 0 2 C0 1.34 0 0.68 0 0 Z " fill="#D2151A" transform="translate(142,56)"/>
<path d="M0 0 C-1.1859733 3.5579199 -1.71068486 4.27310955 -5 6 C-8.01709022 6.24969023 -10.98005968 6.17422733 -14 6 C-14 6.66 -14 7.32 -14 8 C-14.66 8 -15.32 8 -16 8 C-16 8.66 -16 9.32 -16 10 C-19.3 10 -22.6 10 -26 10 C-23.33983676 8.22655784 -21.14158531 7.18279443 -18.18359375 6.0546875 C-17.25482422 5.70019531 -16.32605469 5.34570312 -15.36914062 4.98046875 C-14.40169922 4.61566406 -13.43425781 4.25085938 -12.4375 3.875 C-11.46619141 3.50246094 -10.49488281 3.12992187 -9.49414062 2.74609375 C-2.25672505 0 -2.25672505 0 0 0 Z " fill="#BA0F16" transform="translate(288,97)"/>
<path d="M0 0 C0.66 0.33 1.32 0.66 2 1 C1.360625 1.598125 0.72125 2.19625 0.0625 2.8125 C-2.20310389 4.90810337 -2.20310389 4.90810337 -3 8 C-5.64 8.33 -8.28 8.66 -11 9 C-11 10.98 -11 12.96 -11 15 C-11.33 15 -11.66 15 -12 15 C-12.28774834 11.94986761 -12.4228975 9.04160891 -12 6 C-9.9375 4.125 -9.9375 4.125 -7 3 C-6.39929688 2.71382813 -5.79859375 2.42765625 -5.1796875 2.1328125 C-3.49164991 1.33470268 -1.74695913 0.65922986 0 0 Z " fill="#C4141D" transform="translate(234,117)"/>
<path d="M0 0 C0 0.33 0 0.66 0 1 C-2.31 1.33 -4.62 1.66 -7 2 C-7 2.99 -7 3.98 -7 5 C-7.62261719 4.84660156 -8.24523437 4.69320312 -8.88671875 4.53515625 C-13.18274772 3.79669205 -17.46241952 3.63537838 -21.8125 3.4375 C-22.69615234 3.39431641 -23.57980469 3.35113281 -24.49023438 3.30664062 C-26.65999623 3.20108464 -28.8299791 3.10008929 -31 3 C-31 2.67 -31 2.34 -31 2 C-9.39260417 -0.38776806 -9.39260417 -0.38776806 0 0 Z " fill="#BE181E" transform="translate(86,80)"/>
<path d="M0 0 C1.94158017 3.51624755 2.18311068 5.9715651 2 10 C1.34 10 0.68 10 0 10 C0.02320313 11.11117187 0.04640625 12.22234375 0.0703125 13.3671875 C0.18695202 21.47454508 0.17056355 29.11232711 -2 37 C-2.33 37 -2.66 37 -3 37 C-3.25385233 28.86027217 -2.4597933 20.95109856 -1.5 12.875 C-1.35691406 11.63234375 -1.21382812 10.3896875 -1.06640625 9.109375 C-0.71597384 6.07229415 -0.36039867 3.0359115 0 0 Z " fill="#B4151B" transform="translate(221,132)"/>
<path d="M0 0 C0.33 0 0.66 0 1 0 C1 5 1 10 1 15 C1.20625 16.010625 1.4125 17.02125 1.625 18.0625 C1.74875 19.031875 1.8725 20.00125 2 21 C1.34 21.66 0.68 22.32 0 23 C0.33 21.35 0.66 19.7 1 18 C0.278125 18.78375 -0.44375 19.5675 -1.1875 20.375 C-3.83299041 22.84412438 -5.60373611 23.93260278 -9 25 C-8.236875 24.2575 -7.47375 23.515 -6.6875 22.75 C-1.60725808 16.69112791 -0.86853886 7.64314199 0 0 Z " fill="#BF161A" transform="translate(300,158)"/>
<path d="M0 0 C0.33 0 0.66 0 1 0 C1 4.95 1 9.9 1 15 C2.32 15.33 3.64 15.66 5 16 C4.6875 17.875 4.6875 17.875 4 20 C3.01 20.66 2.02 21.32 1 22 C0.34 22.99 -0.32 23.98 -1 25 C-0.979375 23.906875 -0.95875 22.81375 -0.9375 21.6875 C-0.81455548 18.05615809 -0.81455548 18.05615809 -2 15 C-1.75367118 12.40930029 -1.44871022 9.88163753 -1.0625 7.3125 C-0.96259766 6.61060547 -0.86269531 5.90871094 -0.75976562 5.18554688 C-0.51270675 3.45613473 -0.25717148 1.7279373 0 0 Z " fill="#CC181B" transform="translate(83,259)"/>
<path d="M0 0 C0.33 0 0.66 0 1 0 C1.21120322 7.19459857 0.60752499 14.02087575 -0.5 21.125 C-0.71462891 22.55972656 -0.71462891 22.55972656 -0.93359375 24.0234375 C-1.28258145 26.35002216 -1.63812333 28.67539156 -2 31 C-4 29 -4 29 -4.1875 25.9375 C-4 23 -4 23 -3 22 C-3 20.948125 -3 19.89625 -3 18.8125 C-3 15.38831797 -2.65363439 12.34987623 -2 9 C-1.34 9 -0.68 9 0 9 C0 6.03 0 3.06 0 0 Z " fill="#C31419" transform="translate(179,218)"/>
<path d="M0 0 C5.02381631 0.34253293 7.1797146 1.89046537 11 5 C13.94559648 6.46782257 16.95517451 7.75288193 20 9 C20 9.99 20 10.98 20 12 C16.87169244 10.54868651 13.74796574 9.08776843 10.625 7.625 C9.73554688 7.2125 8.84609375 6.8 7.9296875 6.375 C7.07890625 5.97539062 6.228125 5.57578125 5.3515625 5.1640625 C4.56604004 4.79748535 3.78051758 4.4309082 2.97119141 4.05322266 C1 3 1 3 -1 1 C-0.67 0.67 -0.34 0.34 0 0 Z " fill="#A4080E" transform="translate(145,171)"/>
<path d="M0 0 C-4.49195193 2.38107468 -9.20607135 3.68222304 -14.0625 5.125 C-15.42858398 5.54072266 -15.42858398 5.54072266 -16.82226562 5.96484375 C-17.69689453 6.22652344 -18.57152344 6.48820312 -19.47265625 6.7578125 C-20.66773804 7.11576904 -20.66773804 7.11576904 -21.88696289 7.48095703 C-24 8 -24 8 -27 8 C-27 7.34 -27 6.68 -27 6 C-25.35 6 -23.7 6 -22 6 C-22 5.34 -22 4.68 -22 4 C-19.69 4 -17.38 4 -15 4 C-15 3.34 -15 2.68 -15 2 C-9.87080814 -0.10428384 -5.4389165 -0.21755666 0 0 Z " fill="#BD1820" transform="translate(203,81)"/>
<path d="M0 0 C1.65 0.33 3.3 0.66 5 1 C4.34 1.66 3.68 2.32 3 3 C2.44543564 5.22053194 2.44543564 5.22053194 2.1484375 7.7890625 C2.01953125 8.73007813 1.890625 9.67109375 1.7578125 10.640625 C1.56832031 12.11789063 1.56832031 12.11789063 1.375 13.625 C1.2409375 14.61757812 1.106875 15.61015625 0.96875 16.6328125 C0.63829276 19.08763775 0.31571516 21.54324252 0 24 C-0.33 24 -0.66 24 -1 24 C-1.02901394 20.5625177 -1.04680335 17.12506688 -1.0625 13.6875 C-1.07087891 12.71103516 -1.07925781 11.73457031 -1.08789062 10.72851562 C-1.09111328 9.79072266 -1.09433594 8.85292969 -1.09765625 7.88671875 C-1.10551147 6.59060669 -1.10551147 6.59060669 -1.11352539 5.26831055 C-1 3 -1 3 0 0 Z " fill="#BF161D" transform="translate(116,67)"/>
<path d="M0 0 C5.46737191 1.74807129 10.75824848 3.65794081 16 6 C16 6.66 16 7.32 16 8 C11.71 8 7.42 8 3 8 C3.33 6.02 3.66 4.04 4 2 C2.68 2 1.36 2 0 2 C0 1.34 0 0.68 0 0 Z " fill="#BA171E" transform="translate(195,210)"/>
<path d="M0 0 C-3.48187753 2.32125169 -6.87171039 3.15122685 -10.875 4.125 C-11.58269531 4.30675781 -12.29039062 4.48851562 -13.01953125 4.67578125 C-16.74802173 5.59922489 -20.1557375 6.22613309 -24 6 C-23.67 5.34 -23.34 4.68 -23 4 C-20.45319433 3.18668444 -17.96830129 2.49905646 -15.375 1.875 C-14.67503906 1.69324219 -13.97507812 1.51148438 -13.25390625 1.32421875 C-8.71678184 0.20466857 -4.67025684 -0.18386838 0 0 Z " fill="#C01317" transform="translate(281,209)"/>
<path d="M0 0 C0 0.66 0 1.32 0 2 C-6.5 5 -6.5 5 -11 5 C-11 5.66 -11 6.32 -11 7 C-20.41002278 10.44419134 -20.41002278 10.44419134 -25 10 C-22.78035859 7.78035859 -21.19628099 7.15961366 -18.28125 6.0546875 C-17.34925781 5.70019531 -16.41726562 5.34570312 -15.45703125 4.98046875 C-14.48121094 4.61566406 -13.50539062 4.25085938 -12.5 3.875 C-11.03626953 3.31619141 -11.03626953 3.31619141 -9.54296875 2.74609375 C-2.27034684 0 -2.27034684 0 0 0 Z " fill="#BC0F17" transform="translate(262,107)"/>
<path d="M0 0 C5.45479185 0.56820748 9.91059256 1.94637945 15 4 C15 4.66 15 5.32 15 6 C15.763125 6.144375 16.52625 6.28875 17.3125 6.4375 C20 7 20 7 23 8 C23 8.66 23 9.32 23 10 C15.08090444 7.54234965 7.58014704 4.33181427 0 1 C0 0.67 0 0.34 0 0 Z " fill="#BE141C" transform="translate(239,53)"/>
<path d="M0 0 C0.99 0.33 1.98 0.66 3 1 C1.42173185 2.46381359 -0.16282229 3.92085163 -1.75 5.375 C-2.63171875 6.18710938 -3.5134375 6.99921875 -4.421875 7.8359375 C-6.59802521 9.6625848 -8.40820119 10.89787994 -11 12 C-10.67 10.02 -10.34 8.04 -10 6 C-8.68 6 -7.36 6 -6 6 C-5.67 4.68 -5.34 3.36 -5 2 C-3.68 2.33 -2.36 2.66 -1 3 C-0.67 2.01 -0.34 1.02 0 0 Z " fill="#C21318" transform="translate(336,176)"/>
<path d="M0 0 C0.33 0 0.66 0 1 0 C0.85775413 2.52108103 0.71129879 5.04180403 0.5625 7.5625 C0.50352539 8.61920898 0.50352539 8.61920898 0.44335938 9.69726562 C0.17481721 14.1798541 -0.30616197 18.56293497 -1 23 C-1.33 23 -1.66 23 -2 23 C-2.33 19.04 -2.66 15.08 -3 11 C-3.99 11 -4.98 11 -6 11 C-3.9927092 7.9890638 -3.16115776 7.36983503 0 6 C0 4.02 0 2.04 0 0 Z " fill="#C31619" transform="translate(175,250)"/>
<path d="M0 0 C-0.33 1.65 -0.66 3.3 -1 5 C-2.32 4.67 -3.64 4.34 -5 4 C-5 3.34 -5 2.68 -5 2 C-10.61 2 -16.22 2 -22 2 C-22 1.67 -22 1.34 -22 1 C-14.64206267 0.08839714 -7.41017023 -0.11459026 0 0 Z " fill="#B5191D" transform="translate(54,83)"/>
<path d="M0 0 C3.63 0 7.26 0 11 0 C7.06059243 2.62627171 2.99044148 3.76964144 -1.5 5.1875 C-2.36753906 5.47302734 -3.23507813 5.75855469 -4.12890625 6.05273438 C-5.37994141 6.45008789 -5.37994141 6.45008789 -6.65625 6.85546875 C-7.41744141 7.09934326 -8.17863281 7.34321777 -8.96289062 7.59448242 C-11 8 -11 8 -14 7 C-4.45454545 2 -4.45454545 2 0 2 C0 1.34 0 0.68 0 0 Z " fill="#BE121A" transform="translate(169,50)"/>
<path d="M0 0 C0 0.99 0 1.98 0 3 C-2.71743027 5.71743027 -5.86942046 6.50932886 -9.4375 7.6875 C-10.4594043 8.04424805 -10.4594043 8.04424805 -11.50195312 8.40820312 C-16.63364573 10.12211809 -16.63364573 10.12211809 -20 9 C-13.4 6.03 -6.8 3.06 0 0 Z " fill="#BD141C" transform="translate(271,191)"/>
<path d="M0 0 C0.66 0 1.32 0 2 0 C1.38541771 8.0704358 0.30774665 16.01385781 -1 24 C-1.33 24 -1.66 24 -2 24 C-2 19.05 -2 14.1 -2 9 C-1.34 9 -0.68 9 0 9 C0 6.03 0 3.06 0 0 Z " fill="#B9191B" transform="translate(295,110)"/>
<path d="M0 0 C6.69929505 0.85888398 13.01922515 2.87430093 19 6 C19 6.66 19 7.32 19 8 C14.59041892 7.33392561 10.73427814 5.73375271 6.6875 3.9375 C6.04232422 3.65583984 5.39714844 3.37417969 4.73242188 3.08398438 C3.15301642 2.3937257 1.57623507 1.69746802 0 1 C0 0.67 0 0.34 0 0 Z " fill="#C01418" transform="translate(215,43)"/>
<path d="M0 0 C1.134375 0.020625 2.26875 0.04125 3.4375 0.0625 C0.49509428 2.02410381 -2.32568629 3.40036069 -5.5625 4.8125 C-7.1403125 5.51632813 -7.1403125 5.51632813 -8.75 6.234375 C-9.678125 6.50765625 -10.60625 6.7809375 -11.5625 7.0625 C-12.5525 6.4025 -13.5425 5.7425 -14.5625 5.0625 C-13.49708984 4.64677734 -13.49708984 4.64677734 -12.41015625 4.22265625 C-11.03150391 3.67931641 -11.03150391 3.67931641 -9.625 3.125 C-8.70847656 2.76535156 -7.79195312 2.40570313 -6.84765625 2.03515625 C-2.15509259 0.03780864 -2.15509259 0.03780864 0 0 Z " fill="#C81215" transform="translate(257.5625,182.9375)"/>
<path d="M0 0 C3.37705625 0.53725895 6.696686 1.11064623 10 2 C10 2.66 10 3.32 10 4 C11.65 4 13.3 4 15 4 C15 4.99 15 5.98 15 7 C14.01 7.495 14.01 7.495 13 8 C10.71741367 6.92325298 8.5643566 5.80453884 6.375 4.5625 C5.76398438 4.22412109 5.15296875 3.88574219 4.5234375 3.53710938 C3.011647 2.69853808 1.50529601 1.85017423 0 1 C0 0.67 0 0.34 0 0 Z " fill="#AE0D0F" transform="translate(129,164)"/>
<path d="M0 0 C1.95803507 -0.05389087 3.91648909 -0.09274217 5.875 -0.125 C7.51082031 -0.15980469 7.51082031 -0.15980469 9.1796875 -0.1953125 C12 0 12 0 14 2 C14 2.66 14 3.32 14 4 C9.71 3.67 5.42 3.34 1 3 C0.67 2.01 0.34 1.02 0 0 Z " fill="#D90C10" transform="translate(61,110)"/>
<path d="M0 0 C0.66 0 1.32 0 2 0 C2 3.3 2 6.6 2 10 C1.34 10 0.68 10 0 10 C0.020625 11.19625 0.04125 12.3925 0.0625 13.625 C0.06882571 17.18004869 -0.30111125 20.50555624 -1 24 C-1.33 24 -1.66 24 -2 24 C-1.03644647 7.1070615 -1.03644647 7.1070615 0 0 Z " fill="#B61B1D" transform="translate(91,182)"/>
<path d="M0 0 C1.32 0 2.64 0 4 0 C4 7.59 4 15.18 4 23 C3.34 23.33 2.68 23.66 2 24 C2.01047363 23.41508789 2.02094727 22.83017578 2.03173828 22.22753906 C2.07340264 19.56840337 2.09935901 16.90933647 2.125 14.25 C2.14175781 13.32960938 2.15851563 12.40921875 2.17578125 11.4609375 C2.18222656 10.57148437 2.18867188 9.68203125 2.1953125 8.765625 C2.20578613 7.94868164 2.21625977 7.13173828 2.22705078 6.29003906 C1.97829916 3.78112482 1.25700129 2.16604375 0 0 Z " fill="#B71419" transform="translate(307,82)"/>
<path d="M0 0 C0 0.66 0 1.32 0 2 C-1.97069751 2.73483636 -3.94162333 3.46907022 -5.9140625 4.19921875 C-7.48738179 4.80320837 -9.03343609 5.47890941 -10.5625 6.1875 C-13.76557414 7.25519138 -16.64937824 7.13139693 -20 7 C-17.16556078 4.16556078 -13.74786481 3.50198033 -10 2.375 C-9.26265625 2.14554687 -8.5253125 1.91609375 -7.765625 1.6796875 C-2.28664435 0 -2.28664435 0 0 0 Z " fill="#BB161A" transform="translate(157,69)"/>
<path d="M0 0 C5.91969002 1.75990784 11.41634992 4.39694605 17 7 C13.61682513 7.97591583 11.4342662 7.85856655 8 7 C7.67 6.01 7.34 5.02 7 4 C3.48809191 2.77030122 3.48809191 2.77030122 0 2 C0 1.34 0 0.68 0 0 Z " fill="#C5161E" transform="translate(153,191)"/>
<path d="M0 0 C5.61 0.33 11.22 0.66 17 1 C17 1.33 17 1.66 17 2 C8.31126982 2.89115181 -0.26860536 3.11624638 -9 3 C-9 2.67 -9 2.34 -9 2 C-4.545 1.505 -4.545 1.505 0 1 C0 0.67 0 0.34 0 0 Z " fill="#AE090B" transform="translate(227,216)"/>
<path d="M0 0 C0 0.66 0 1.32 0 2 C-4.95 2.33 -9.9 2.66 -15 3 C-15 2.01 -15 1.02 -15 0 C-12.87562788 -0.19448477 -10.75046809 -0.38038289 -8.625 -0.5625 C-7.44164062 -0.66691406 -6.25828125 -0.77132812 -5.0390625 -0.87890625 C-2 -1 -2 -1 0 0 Z " fill="#C7090D" transform="translate(45,89)"/>
<path d="M0 0 C6.27 0 12.54 0 19 0 C19 0.33 19 0.66 19 1 C18.01257813 1.06058594 17.02515625 1.12117187 16.0078125 1.18359375 C14.72648438 1.26738281 13.44515625 1.35117188 12.125 1.4375 C10.84882813 1.51871094 9.57265625 1.59992188 8.2578125 1.68359375 C5.11699848 1.79206027 5.11699848 1.79206027 3 3 C2.53476937 4.89533342 2.53476937 4.89533342 2.375 7.0625 C2.25125 8.361875 2.1275 9.66125 2 11 C1.67 11 1.34 11 1 11 C0.67 7.37 0.34 3.74 0 0 Z " fill="#DC0C12" transform="translate(177,216)"/>
<path d="M0 0 C0 2.31 0 4.62 0 7 C-0.33 6.01 -0.66 5.02 -1 4 C-3.97 3.67 -6.94 3.34 -10 3 C-7.28464405 0.28464405 -3.67870689 -1.83935344 0 0 Z " fill="#BC1920" transform="translate(299,94)"/>
<path d="M0 0 C0.66 0 1.32 0 2 0 C1.8125 2.3125 1.8125 2.3125 1 5 C-3.03448276 8 -3.03448276 8 -6 8 C-6 6.02 -6 4.04 -6 2 C-5.01 2 -4.02 2 -3 2 C-3 2.66 -3 3.32 -3 4 C-2.34 3.67 -1.68 3.34 -1 3 C-0.67 2.01 -0.34 1.02 0 0 Z " fill="#BF161F" transform="translate(285,167)"/>
<path d="M0 0 C0.66 0 1.32 0 2 0 C1.67 4.62 1.34 9.24 1 14 C0.67 13.34 0.34 12.68 0 12 C-0.66 11.67 -1.32 11.34 -2 11 C-1.85957123 9.35369672 -1.71250671 7.70795821 -1.5625 6.0625 C-1.48128906 5.14597656 -1.40007812 4.22945312 -1.31640625 3.28515625 C-1 1 -1 1 0 0 Z " fill="#CC1116" transform="translate(85,246)"/>
<path d="M0 0 C11.15889691 3.0551543 11.15889691 3.0551543 15 6 C15 6.66 15 7.32 15 8 C14.01 8 13.02 8 12 8 C12 7.34 12 6.68 12 6 C11.01 6 10.02 6 9 6 C9 5.34 9 4.68 9 4 C7.35 4 5.7 4 4 4 C4 3.34 4 2.68 4 2 C2.68 1.67 1.36 1.34 0 1 C0 0.67 0 0.34 0 0 Z " fill="#AB191C" transform="translate(282,83)"/>
<path d="M0 0 C2.3431213 0.25561323 4.67843403 0.59270772 7 1 C7.33 1.66 7.66 2.32 8 3 C3.05 4.485 3.05 4.485 -2 6 C-1.67 5.01 -1.34 4.02 -1 3 C-0.34 2.67 0.32 2.34 1 2 C0.67 1.34 0.34 0.68 0 0 Z " fill="#C11315" transform="translate(290,201)"/>
<path d="M0 0 C4.62 2.31 9.24 4.62 14 7 C10 8 10 8 7.75 7.0625 C6.88375 6.5365625 6.88375 6.5365625 6 6 C6 5.34 6 4.68 6 4 C4.35 4 2.7 4 1 4 C0.67 2.68 0.34 1.36 0 0 Z " fill="#C0181C" transform="translate(124,175)"/>
<path d="M0 0 C0.66 0 1.32 0 2 0 C0.5140084 4.59306496 -1.85014682 7.43569245 -5 11 C-6.125 7.25 -6.125 7.25 -5 5 C-2.9375 4.375 -2.9375 4.375 -1 4 C-0.67 2.68 -0.34 1.36 0 0 Z " fill="#C41317" transform="translate(351,158)"/>
<path d="M0 0 C0.66 0 1.32 0 2 0 C2.20413361 5.73842251 2.27141454 10.60539047 0 16 C-0.33 16 -0.66 16 -1 16 C-0.67 10.72 -0.34 5.44 0 0 Z " fill="#B4171E" transform="translate(103,62)"/>
<path d="M0 0 C-0.99 0.33 -1.98 0.66 -3 1 C-4.20882096 3.00016466 -4.20882096 3.00016466 -5 5 C-5.556875 4.814375 -6.11375 4.62875 -6.6875 4.4375 C-9.399133 3.92448835 -11.34371039 4.3359276 -14 5 C-10.63156097 2.05261585 -4.40469071 -2.20234535 0 0 Z " fill="#BC171B" transform="translate(236,208)"/>
<path d="M0 0 C5.05255964 0.63156995 9.29593201 2.13459373 14 4 C13.67 4.66 13.34 5.32 13 6 C8.14036821 5.39254603 4.2594482 3.27241033 0 1 C0 0.67 0 0.34 0 0 Z " fill="#971016" transform="translate(167,183)"/>
<path d="M0 0 C2 2 2 2 2.1953125 4.6015625 C2.17210937 5.59929687 2.14890625 6.59703125 2.125 7.625 C2.10695312 8.62789062 2.08890625 9.63078125 2.0703125 10.6640625 C2.03550781 11.82035156 2.03550781 11.82035156 2 13 C1.690625 12.360625 1.38125 11.72125 1.0625 11.0625 C0.1654837 9.06389179 0.1654837 9.06389179 -1 8 C-1.125 4.5 -1.125 4.5 -1 1 C-0.67 0.67 -0.34 0.34 0 0 Z " fill="#AE1311" transform="translate(211,144)"/>
<path d="M0 0 C1.98 0 3.96 0 6 0 C6 0.66 6 1.32 6 2 C7.175625 2.185625 7.175625 2.185625 8.375 2.375 C11 3 11 3 13 5 C8.02693484 4.50269348 4.36200187 3.44697666 0 1 C0 0.67 0 0.34 0 0 Z " fill="#9E0E15" transform="translate(180,189)"/>
<path d="M0 0 C0.33 0 0.66 0 1 0 C1.33 4.95 1.66 9.9 2 15 C1.01 15.66 0.02 16.32 -1 17 C-1.12036664 11.22240116 -0.8320582 5.72040011 0 0 Z " fill="#AE0B0E" transform="translate(214,128)"/>
<path d="M0 0 C0.33 0 0.66 0 1 0 C1.21824777 6.0018137 0.5056904 11.19233704 -1 17 C-1.33 17 -1.66 17 -2 17 C-2.05441656 15.10448978 -2.09298035 13.2085208 -2.125 11.3125 C-2.14820313 10.25675781 -2.17140625 9.20101562 -2.1953125 8.11328125 C-1.99858729 4.97748141 -1.33057654 2.82354627 0 0 Z " fill="#951B21" transform="translate(184,102)"/>
<path d="M0 0 C0.66 1.32 1.32 2.64 2 4 C1.67 4.33 1.34 4.66 1 5 C0.60056824 7.52195967 0.24920152 10.02963656 -0.0625 12.5625 C-0.15337891 13.27341797 -0.24425781 13.98433594 -0.33789062 14.71679688 C-0.56239503 16.47738403 -0.78168397 18.23863478 -1 20 C-1.33 20 -1.66 20 -2 20 C-2.24615385 4.49230769 -2.24615385 4.49230769 0 0 Z " fill="#A90C14" transform="translate(184,110)"/>
<path d="M0 0 C4.42761914 1.39153744 6.9556255 3.52071486 10 7 C10 7.66 10 8.32 10 9 C8.68 8.67 7.36 8.34 6 8 C5.938125 7.38125 5.87625 6.7625 5.8125 6.125 C5.171081 3.72238859 5.171081 3.72238859 2.4375 2.75 C1.633125 2.5025 0.82875 2.255 0 2 C0 1.34 0 0.68 0 0 Z " fill="#C2141A" transform="translate(332,37)"/>
<path d="M0 0 C3.7602985 0.58107632 6.53035032 1.65199496 9.8125 3.5625 C10.60269531 4.01753906 11.39289063 4.47257812 12.20703125 4.94140625 C12.79871094 5.29074219 13.39039063 5.64007813 14 6 C13.01 6.495 13.01 6.495 12 7 C9.61979068 6.05689819 7.32214518 5.06639285 5 4 C3.3357865 3.32723284 1.67013418 2.65793165 0 2 C0 1.34 0 0.68 0 0 Z " fill="#BB1721" transform="translate(313,27)"/>
<path d="M0 0 C0.99 0 1.98 0 3 0 C3 0.66 3 1.32 3 2 C1.5437455 2.67119549 0.08492133 3.33681807 -1.375 4 C-2.59316406 4.556875 -2.59316406 4.556875 -3.8359375 5.125 C-6 6 -6 6 -8 6 C-8 5.01 -8 4.02 -8 3 C-5.29120665 1.64560332 -2.99066732 1.93498549 0 2 C0 1.34 0 0.68 0 0 Z " fill="#C21620" transform="translate(269,177)"/>
<path d="M0 0 C0.90105469 0.00902344 1.80210937 0.01804688 2.73046875 0.02734375 C3.41753906 0.03894531 4.10460937 0.05054688 4.8125 0.0625 C1.69339144 1.85525866 -0.86432428 2.40540718 -4.4375 2.6875 C-5.32953125 2.76226562 -6.2215625 2.83703125 -7.140625 2.9140625 C-7.81609375 2.96304688 -8.4915625 3.01203125 -9.1875 3.0625 C-7.31499103 -0.68251794 -3.72136574 -0.04832943 0 0 Z " fill="#B9181E" transform="translate(266.1875,211.9375)"/>
<path d="M0 0 C0.33 0 0.66 0 1 0 C1.33 2.64 1.66 5.28 2 8 C3.65 8 5.3 8 7 8 C4.38058783 9.74627478 2.96175123 10.38722388 0 11 C-1.26026798 8.47946405 -0.91874445 7.1457902 -0.5625 4.375 C-0.46066406 3.55773437 -0.35882813 2.74046875 -0.25390625 1.8984375 C-0.17011719 1.27195313 -0.08632812 0.64546875 0 0 Z " fill="#AF191C" transform="translate(215,191)"/>
<path d="M0 0 C0.66 0 1.32 0 2 0 C2 0.99 2 1.98 2 3 C3.32 3.33 4.64 3.66 6 4 C3.36 4.99 0.72 5.98 -2 7 C-1.125 1.125 -1.125 1.125 0 0 Z " fill="#B91317" transform="translate(282,90)"/>
<path d="M0 0 C4.75 0.875 4.75 0.875 7 2 C7 2.66 7 3.32 7 4 C2.375 6.125 2.375 6.125 -1 5 C0.32 4.67 1.64 4.34 3 4 C3 3.34 3 2.68 3 2 C2.01 2 1.02 2 0 2 C0 1.34 0 0.68 0 0 Z " fill="#B81A1E" transform="translate(238,65)"/>
<path d="M0 0 C0.33 0.66 0.66 1.32 1 2 C3.02463255 2.65213292 3.02463255 2.65213292 5 3 C4.67 4.32 4.34 5.64 4 7 C1.525 6.01 1.525 6.01 -1 5 C-0.67 3.35 -0.34 1.7 0 0 Z " fill="#DB2428" transform="translate(270,16)"/>
<path d="M0 0 C0.33 0 0.66 0 1 0 C1.35338623 2.96844435 1.5417682 5.15598218 -0.11328125 7.734375 C-1.35503168 9.20348819 -2.67337918 10.60704814 -4 12 C-5.32 11.34 -6.64 10.68 -8 10 C-6.35 9.67 -4.7 9.34 -3 9 C-3 8.34 -3 7.68 -3 7 C-2.34 7 -1.68 7 -1 7 C-0.67 4.69 -0.34 2.38 0 0 Z " fill="#BF1421" transform="translate(172,274)"/>
<path d="M0 0 C1.46109063 0.25554054 2.91888096 0.53000372 4.375 0.8125 C5.59316406 1.03873047 5.59316406 1.03873047 6.8359375 1.26953125 C9 2 9 2 11 5 C10.01 5.495 10.01 5.495 9 6 C6.8359375 5.00390625 6.8359375 5.00390625 4.375 3.5625 C3.55773437 3.08941406 2.74046875 2.61632812 1.8984375 2.12890625 C1.27195313 1.75636719 0.64546875 1.38382813 0 1 C0 0.67 0 0.34 0 0 Z " fill="#900C10" transform="translate(155,177)"/>
<path d="M0 0 C1.98 1.65 3.96 3.3 6 5 C3.50935112 5.68707555 1.62113708 6 -1 6 C-0.67 4.02 -0.34 2.04 0 0 Z " fill="#D01A21" transform="translate(345,48)"/>
<path d="M0 0 C1.43931117 0.45261358 2.87638999 0.91232979 4.3125 1.375 C5.11300781 1.63023438 5.91351563 1.88546875 6.73828125 2.1484375 C9 3 9 3 12 5 C7.12335991 5.34833144 4.22949995 4.41685712 0 2 C0 1.34 0 0.68 0 0 Z " fill="#BB191A" transform="translate(222,58)"/>
<path d="M0 0 C0.33 0 0.66 0 1 0 C2.36442308 7.44230769 2.36442308 7.44230769 0.51953125 10.265625 C0.01808594 10.83796875 -0.48335937 11.4103125 -1 12 C-1.02698189 10.37509046 -1.04638757 8.75005367 -1.0625 7.125 C-1.07410156 6.22007812 -1.08570313 5.31515625 -1.09765625 4.3828125 C-1 2 -1 2 0 0 Z " fill="#AD0A0A" transform="translate(210,185)"/>
<path d="M0 0 C3.3 0 6.6 0 10 0 C9.67 1.32 9.34 2.64 9 4 C6.03 3.01 3.06 2.02 0 1 C0 0.67 0 0.34 0 0 Z " fill="#BD1417" transform="translate(272,67)"/>
<path d="M0 0 C3.96 0 7.92 0 12 0 C12 0.33 12 0.66 12 1 C10.37681021 1.36237263 8.7513642 1.71465157 7.125 2.0625 C6.22007812 2.25972656 5.31515625 2.45695313 4.3828125 2.66015625 C2 3 2 3 0 2 C0 1.34 0 0.68 0 0 Z " fill="#C22427" transform="translate(244,215)"/>
<path d="M0 0 C3.37705625 0.53725895 6.696686 1.11064623 10 2 C10 2.66 10 3.32 10 4 C7 5 7 5 5.17578125 4.22265625 C3.45052083 3.1484375 1.72526042 2.07421875 0 1 C0 0.67 0 0.34 0 0 Z " fill="#91100F" transform="translate(129,164)"/>
<path d="M0 0 C2.875 -0.125 2.875 -0.125 6 0 C6.66 0.66 7.32 1.32 8 2 C7.01 2.66 6.02 3.32 5 4 C2.3125 3.125 2.3125 3.125 0 2 C0 1.34 0 0.68 0 0 Z " fill="#CC0F14" transform="translate(39,113)"/>
<path d="M0 0 C-1.13304992 3.39914975 -2.12518475 4.05254451 -5 6 C-6.32 5.34 -7.64 4.68 -9 4 C-7.68 4 -6.36 4 -5 4 C-5 3.01 -5 2.02 -5 1 C-2 0 -2 0 0 0 Z " fill="#C71516" transform="translate(288,97)"/>
<path d="M0 0 C-3.82517513 2.39073445 -7.59665524 2.55966552 -12 3 C-8.2391768 -0.7608232 -5.0273023 -0.25136512 0 0 Z " fill="#BB141B" transform="translate(176,89)"/>
<path d="M0 0 C0 0.66 0 1.32 0 2 C1.32 2.33 2.64 2.66 4 3 C1.50907189 4.24546405 0.58919267 3.7767578 -2 3 C-2.33 3.66 -2.66 4.32 -3 5 C-3.33 3.68 -3.66 2.36 -4 1 C-2 0 -2 0 0 0 Z " fill="#C9151B" transform="translate(136,78)"/>
<path d="M0 0 C-1.39332574 3.36720387 -2.9789286 4.9859524 -6 7 C-5.37162381 3.35541809 -4.14650034 0 0 0 Z " fill="#B60D13" transform="translate(345,169)"/>
<path d="M0 0 C0.33 0.99 0.66 1.98 1 3 C-1.86177057 4.43088528 -3.93375773 3.59991697 -7 3 C-4.49955934 -0.00052879 -4.2621484 0 0 0 Z " fill="#DC1016" transform="translate(197,99)"/>
<path d="M0 0 C0.66 0 1.32 0 2 0 C1.67 3.3 1.34 6.6 1 10 C0.01 9.01 -0.98 8.02 -2 7 C-1.34 4.69 -0.68 2.38 0 0 Z " fill="#D60E17" transform="translate(107,38)"/>
<path d="" fill="#FFFFFF" transform="translate(0,0)"/>
<path d="" fill="#FFFFFF" transform="translate(0,0)"/>
<path d="" fill="#FFFFFF" transform="translate(0,0)"/>
<path d="" fill="#FFFFFF" transform="translate(0,0)"/>
<path d="" fill="#FFFFFF" transform="translate(0,0)"/>
<path d="" fill="#FFFFFF" transform="translate(0,0)"/>
<path d="" fill="#FFFFFF" transform="translate(0,0)"/>
<path d="" fill="#FFFFFF" transform="translate(0,0)"/>
<path d="" fill="#FFFFFF" transform="translate(0,0)"/>
<path d="" fill="#FFFFFF" transform="translate(0,0)"/>
<path d="" fill="#FFFFFF" transform="translate(0,0)"/>
<path d="" fill="#FFFFFF" transform="translate(0,0)"/>
<path d="" fill="#FFFFFF" transform="translate(0,0)"/>
<path d="" fill="#FFFFFF" transform="translate(0,0)"/>
<path d="" fill="#FFFFFF" transform="translate(0,0)"/>
<path d="" fill="#FFFFFF" transform="translate(0,0)"/>
<path d="" fill="#FFFFFF" transform="translate(0,0)"/>
<path d="" fill="#FFFFFF" transform="translate(0,0)"/>
<path d="" fill="#FFFFFF" transform="translate(0,0)"/>
<path d="" fill="#FFFFFF" transform="translate(0,0)"/>
<path d="" fill="#FFFFFF" transform="translate(0,0)"/>
<path d="" fill="#FFFFFF" transform="translate(0,0)"/>
<path d="" fill="#FFFFFF" transform="translate(0,0)"/>
<path d="" fill="#FFFFFF" transform="translate(0,0)"/>
<path d="" fill="#FFFFFF" transform="translate(0,0)"/>
<path d="" fill="#FFFFFF" transform="translate(0,0)"/>
<path d="" fill="#FFFFFF" transform="translate(0,0)"/>
<path d="" fill="#FFFFFF" transform="translate(0,0)"/>
<path d="" fill="#FFFFFF" transform="translate(0,0)"/>
<path d="" fill="#FFFFFF" transform="translate(0,0)"/>
<path d="" fill="#FFFFFF" transform="translate(0,0)"/>
<path d="" fill="#FFFFFF" transform="translate(0,0)"/>
<path d="" fill="#FFFFFF" transform="translate(0,0)"/>
<path d="" fill="#FFFFFF" transform="translate(0,0)"/>
<path d="" fill="#FFFFFF" transform="translate(0,0)"/>
<path d="" fill="#FFFFFF" transform="translate(0,0)"/>
<path d="" fill="#FFFFFF" transform="translate(0,0)"/>
<path d="" fill="#FFFFFF" transform="translate(0,0)"/>
<path d="" fill="#FFFFFF" transform="translate(0,0)"/>
</svg>
