
<svg width="131" height="105" viewBox="0 0 131 105" fill="none" xmlns="http://www.w3.org/2000/svg">
<path d="M116.479 94.0871L116.147 93.748L108.098 101.923L108.294 102.121L110.428 104.286C111.796 105.678 114.706 104.974 116.931 102.718C119.154 100.458 119.845 97.5018 118.478 96.1132L116.483 94.0872L116.479 94.0871Z" fill="#b49855"/>
<path d="M114.178 91.7832L106.129 99.9532L108.099 101.925L116.148 93.7493L115.918 93.5156L115.912 93.5193L114.178 91.7832Z" fill="#dfd3b8"/>
<path d="M71.3666 24.1445C54.0451 24.1445 40.0039 38.4102 40.0039 56.0054C40.0039 73.5999 54.0451 87.8626 71.3666 87.8626C77.7886 87.8626 83.7497 85.8993 88.7238 82.5362L106.129 99.9511L114.179 91.7811L96.887 74.482C100.554 69.2685 102.734 62.9002 102.734 56.0054C102.734 38.4102 88.6926 24.1445 71.3666 24.1445ZM71.7956 78.4063C59.617 78.4063 49.7412 68.3781 49.7412 56.0055C49.7412 43.632 59.617 33.6046 71.7956 33.6046C83.977 33.6046 93.8506 43.6321 93.8506 56.0055C93.8506 68.3781 83.977 78.4063 71.7956 78.4063Z" fill="#b49855"/>
<path d="M75.5832 42.1442L60.1773 61.827C59.6682 62.4815 59.7739 63.4325 60.4179 63.9562C60.6927 64.1748 61.0201 64.2833 61.346 64.2833C61.782 64.2833 62.2194 64.0897 62.5134 63.7114L77.9171 44.0274C78.4305 43.3729 78.3205 42.4226 77.6756 41.9019C77.0317 41.3854 76.093 41.4892 75.5832 42.1442Z" fill="#dfd3b8"/>
<path d="M82.0462 48.7047L66.6396 68.3883C66.127 69.043 66.2363 69.9931 66.8811 70.5171C67.1559 70.7359 67.4832 70.8442 67.8078 70.8442C68.2452 70.8442 68.6797 70.6473 68.9737 70.2722L84.3803 50.5886C84.8923 49.9341 84.7837 48.9834 84.1388 48.4599C83.4969 47.942 82.5561 48.0505 82.0462 48.7047Z" fill="#dfd3b8"/>
<path d="M127.584 50.7384C125.989 49.8508 124.169 49.6508 122.997 49.7592C121.9 49.8611 120.301 50.1865 118.915 51.159C118.055 51.7633 117.394 52.5407 116.953 53.4699C116.43 54.5707 116.213 55.893 116.306 57.3996C116.32 57.6256 116.422 57.8314 116.591 57.9791C116.762 58.1275 116.979 58.1977 117.203 58.177L120.079 57.9102C120.485 57.8727 120.806 57.5328 120.826 57.1196C120.871 56.1916 121.268 54.5992 123.417 54.362C125.055 54.1818 125.839 55.3242 126.101 55.8241C126.526 56.6374 126.528 57.6487 126.105 58.5293C125.455 59.882 124.065 60.2087 123.293 60.2833C122.407 60.3687 121.751 61.1672 121.832 62.0626L122.114 65.2066C122.156 65.6656 122.557 66.005 123.009 65.9634L125.811 65.7035C126.263 65.6615 126.597 65.254 126.556 64.795L126.497 64.1342C126.495 64.1186 126.504 64.1037 126.518 64.0971C127.133 63.8121 128.314 63.151 129.322 61.9289C130.608 60.3687 131.16 58.4579 130.962 56.2497C130.678 53.0892 128.968 51.5084 127.584 50.7384Z" fill="#dfd3b8"/>
<path d="M124.623 66.6126L124.378 66.6353C123.206 66.7442 122.34 67.8008 122.446 68.9915C122.554 70.1822 123.594 71.062 124.766 70.9535L125.011 70.9308C126.183 70.8219 127.05 69.7653 126.943 68.5746C126.836 67.3839 125.795 66.5037 124.623 66.6126Z" fill="#dfd3b8"/>
<path d="M10.5604 14.3973C9.4795 13.3155 8.06403 12.7335 7.09967 12.5492C6.19662 12.3768 4.84083 12.2675 3.51062 12.7269C2.68431 13.0123 1.97982 13.4833 1.41704 14.1267C0.75031 14.8889 0.278892 15.8994 0.0157733 17.1301C-0.0236132 17.3148 0.0113052 17.5033 0.114441 17.6613C0.217983 17.8201 0.376341 17.9265 0.560686 17.962L2.92875 18.414C3.26293 18.4779 3.5971 18.2795 3.70593 17.9525C3.95037 17.2183 4.62643 16.0326 6.4041 16.3398C7.75868 16.5749 8.13143 17.6732 8.22929 18.1348C8.38805 18.8862 8.16229 19.6979 7.62509 20.3062C6.7996 21.2412 5.61069 21.1814 4.97523 21.0622C4.24475 20.9257 3.53945 21.414 3.40301 22.1515L2.92388 24.7395C2.85404 25.1173 3.0997 25.4827 3.47163 25.5536L5.77879 25.9941C6.15073 26.0651 6.51049 25.8155 6.58033 25.4377L6.68103 24.8942C6.68347 24.881 6.69362 24.8715 6.70661 24.8694C7.26371 24.7828 8.36003 24.5263 9.44296 23.7793C10.8255 22.8254 11.6973 21.4202 12.0335 19.6022C12.5151 17.0002 11.4984 15.3356 10.5604 14.3973Z" fill="#dfd3b8"/>
<path d="M4.62023 26.4486L4.41843 26.4103C3.45366 26.2259 2.52097 26.8734 2.33947 27.8534C2.15796 28.8333 2.79546 29.7807 3.76022 29.965L3.96203 30.0034C4.9268 30.1878 5.85949 29.5402 6.04099 28.5603C6.22209 27.5803 5.585 26.633 4.62023 26.4486Z" fill="#dfd3b8"/>
<path d="M105.244 0.892772C103.853 0.111855 102.264 -0.0694101 101.24 0.0214026C100.281 0.106449 98.883 0.385015 97.669 1.23008C96.9147 1.75477 96.3353 2.4319 95.9465 3.24237C95.486 4.20239 95.2912 5.35665 95.3678 6.6738C95.3792 6.87128 95.4672 7.05146 95.6147 7.18119C95.7634 7.31164 95.9529 7.37363 96.1483 7.35633L98.6624 7.13326C99.0171 7.10191 99.2988 6.80605 99.318 6.44496C99.3606 5.63413 99.7125 4.24455 101.591 4.04455C103.023 3.89284 103.704 4.89394 103.931 5.33179C104.3 6.04387 104.298 6.92785 103.925 7.69544C103.353 8.87528 102.137 9.15565 101.463 9.21799C100.688 9.28971 100.112 9.98486 100.179 10.7676L100.416 13.5154C100.45 13.9168 100.8 14.2145 101.195 14.1795L103.644 13.9622C104.04 13.9273 104.333 13.5723 104.298 13.1709L104.248 12.5936C104.247 12.5799 104.255 12.5669 104.268 12.5611C104.805 12.3143 105.84 11.7409 106.725 10.6768C107.854 9.31818 108.343 7.65039 108.177 5.72026C107.94 2.95804 106.451 1.57026 105.244 0.892772Z" fill="#dfd3b8"/>
<path d="M102.601 14.7533L102.386 14.7724C101.362 14.8633 100.601 15.7836 100.691 16.8244C100.78 17.8651 101.686 18.6378 102.711 18.5466L102.925 18.5275C103.949 18.4367 104.71 17.5163 104.621 16.4755C104.531 15.4352 103.625 14.6625 102.601 14.7533Z" fill="#dfd3b8"/>
<path d="M26.0858 69.6101C23.6378 68.4447 20.9198 68.3196 19.192 68.5917C17.5741 68.8465 15.2326 69.4804 13.266 71.0541C12.0444 72.0318 11.1365 73.2473 10.5671 74.6675C9.89267 76.3497 9.69115 78.3318 9.96788 80.5581C10.0094 80.8922 10.1783 81.188 10.4437 81.3909C10.7101 81.5949 11.0386 81.6788 11.3686 81.627L15.6108 80.9592C16.2093 80.8651 16.6545 80.3303 16.6467 79.7156C16.6286 78.3346 17.0711 75.9353 20.2372 75.38C22.6504 74.958 23.9184 76.5786 24.3523 77.2953C25.0584 78.4618 25.1531 79.9617 24.6064 81.308C23.7659 83.3762 21.7337 83.9924 20.5966 84.1758C19.2892 84.3866 18.3898 85.6324 18.5913 86.9536L19.2988 91.5904C19.402 92.2675 20.0286 92.7331 20.6952 92.6283L24.8285 91.9778C25.4951 91.8729 25.9535 91.2365 25.8503 90.5594L25.7016 89.5853C25.6981 89.5619 25.7094 89.5395 25.7303 89.528C26.6159 89.0469 28.3075 87.955 29.6905 86.0469C31.4559 83.6108 32.0988 80.7242 31.6021 77.4672C30.8907 72.8051 28.2096 70.6213 26.0858 69.6101Z" fill="#dfd3b8"/>
<path d="M23.1461 93.4367L22.7845 93.4937C21.056 93.7657 19.8675 95.4155 20.1354 97.1712C20.4032 98.9269 22.0274 100.134 23.7559 99.8621L24.1175 99.8052C25.846 99.5331 27.0345 97.8833 26.7667 96.1276C26.4988 94.3719 24.8746 93.1646 23.1461 93.4367Z" fill="#dfd3b8"/>
</svg>
